<svg width="89" height="89" viewBox="0 0 89 89" fill="none" xmlns="http://www.w3.org/2000/svg">
<path d="M44.262 88.7075C68.6114 88.7075 88.3506 69.0441 88.3506 44.7882C88.3506 20.5322 68.6114 0.868896 44.262 0.868896C19.9125 0.868896 0.17334 20.5322 0.17334 44.7882C0.17334 69.0441 19.9125 88.7075 44.262 88.7075Z" fill="url(#paint0_linear_72_598)"/>
<path d="M50.1591 38.5429V32.7587H63.4419V23.9437H27.2768V32.7587H40.5596V38.5398C29.7657 39.0351 21.6484 41.1625 21.6484 43.7136C21.6484 46.2646 29.7689 48.3952 40.5596 48.8904V67.4238H50.1653V48.8904C60.9404 48.3952 69.0422 46.2677 69.0422 43.7167C69.0422 41.1656 60.9404 39.0382 50.1653 38.5429M50.1653 47.3174C49.8933 47.3299 48.5018 47.414 45.4031 47.414C42.9235 47.414 41.1819 47.3455 40.5659 47.3112V47.3174C31.029 46.8969 23.9091 45.243 23.9091 43.2619C23.9091 41.2809 31.029 39.63 40.5659 39.2095V45.6697C41.1913 45.7133 42.9767 45.8161 45.4438 45.8161C48.4049 45.8161 49.8933 45.6946 50.1684 45.6697V39.2095C59.6866 39.6331 66.7908 41.2871 66.7908 43.2619C66.7908 45.2367 59.6866 46.8907 50.1684 47.3143" fill="white"/>
<path d="M64.4052 39.3652C71.1401 39.3652 76.5999 33.9264 76.5999 27.2173C76.5999 20.5083 71.1401 15.0695 64.4052 15.0695C57.6702 15.0695 52.2104 20.5083 52.2104 27.2173C52.2104 33.9264 57.6702 39.3652 64.4052 39.3652Z" fill="url(#paint1_linear_72_598)"/>
<path d="M62.1568 26.2954L64.405 24.0558L66.6532 26.2954L67.9603 24.9934L64.405 21.4518L60.8498 24.9934L62.1568 26.2954ZM58.6172 27.2142L59.9242 25.9122L61.2313 27.2142L59.9242 28.5162L58.6172 27.2142V27.2142ZM62.1568 28.1331L64.405 30.3727L66.6532 28.1331L67.9603 29.4351L64.405 32.9798L60.8498 29.4382L62.1599 28.1362M67.5787 27.2174L68.8858 25.9154L70.1928 27.2174L68.8858 28.5194L67.5787 27.2174V27.2174Z" fill="white"/>
<path d="M65.7307 27.2174L64.4049 25.8967L63.4231 26.8747L63.3105 26.9869L63.0791 27.2174V27.2205L64.4049 28.5412L65.7307 27.2205" fill="white"/>
<defs>
<linearGradient id="paint0_linear_72_598" x1="82.3627" y1="3.81554" x2="4.66451" y2="88.0182" gradientUnits="userSpaceOnUse">
<stop stop-color="#3FA888"/>
<stop offset="1" stop-color="#007E55"/>
</linearGradient>
<linearGradient id="paint1_linear_72_598" x1="74.9427" y1="15.8824" x2="53.4505" y2="39.1736" gradientUnits="userSpaceOnUse">
<stop stop-color="#F0B90B"/>
<stop offset="1" stop-color="#F7931E"/>
</linearGradient>
</defs>
</svg>
