<svg width="89" height="89" viewBox="0 0 89 89" fill="none" xmlns="http://www.w3.org/2000/svg">
<path d="M44.0886 88.0409C68.4381 88.0409 88.1772 68.3776 88.1772 44.1216C88.1772 19.8657 68.4381 0.202332 44.0886 0.202332C19.7391 0.202332 0 19.8657 0 44.1216C0 68.3776 19.7391 88.0409 44.0886 88.0409Z" fill="url(#paint0_linear_72_560)"/>
<path d="M23.3045 44.9657V52.7155C23.3045 54.3881 23.489 55.4285 23.8548 55.8334C24.3551 56.4097 25.1087 56.6962 26.1187 56.6962H27.1412V57.422H15.7031V56.6962H16.7068C17.8356 56.6962 18.6424 56.3318 19.1302 55.5967C19.3928 55.1918 19.5241 54.2293 19.5241 52.7123V35.5278C19.5241 33.8551 19.3459 32.8147 18.9926 32.4098C18.4798 31.8336 17.7199 31.547 16.7068 31.547H15.7031V30.8212H25.4902C27.8791 30.8212 29.7646 31.0673 31.1404 31.5563C32.5193 32.0454 33.6794 32.8739 34.6268 34.0389C35.5711 35.2038 36.0433 36.5837 36.0433 38.1785C36.0433 40.3495 35.3241 42.1156 33.8889 43.4737C32.4505 44.8349 30.4212 45.5139 27.7947 45.5139C27.1505 45.5139 26.4564 45.4672 25.7059 45.3769C24.9555 45.2866 24.1581 45.1495 23.3045 44.9657V44.9657ZM23.3045 43.8475C24.0018 43.9783 24.6178 44.0749 25.1556 44.1403C25.6934 44.2057 26.1531 44.2369 26.5345 44.2369C27.901 44.2369 29.0767 43.7104 30.071 42.6576C31.0622 41.6048 31.5563 40.2405 31.5563 38.5678C31.5563 37.4185 31.3186 36.347 30.8465 35.3596C30.3743 34.3721 29.7052 33.6339 28.839 33.1418C27.9729 32.6528 26.9879 32.4067 25.8842 32.4067C25.215 32.4067 24.3551 32.5313 23.3045 32.7805V43.8444V43.8475Z" fill="white"/>
<path d="M53.9633 57.422L43.6447 35.0418V52.8151C43.6447 54.4504 43.823 55.469 44.1763 55.8739C44.6609 56.4221 45.4302 56.6962 46.4808 56.6962H47.4251V57.422H38.1321V56.6962H39.0764C40.2052 56.6962 41.0057 56.3567 41.4778 55.6777C41.7655 55.2603 41.9124 54.304 41.9124 52.8151V35.4343C41.9124 34.2569 41.7811 33.4065 41.5185 32.8833C41.334 32.5032 40.9963 32.1886 40.5054 31.9301C40.0144 31.6747 39.2234 31.547 38.1321 31.547V30.8212H45.6928L55.3798 51.6346L64.9104 30.8212H72.4712V31.547H71.5456C70.4043 31.547 69.5976 31.8865 69.1223 32.5655C68.8346 32.9829 68.6877 33.9392 68.6877 35.4281V52.8089C68.6877 54.4442 68.8722 55.4628 69.238 55.8677C69.7227 56.4159 70.4919 56.69 71.5425 56.69H72.468V57.4158H61.127V56.69H62.0713C63.2126 56.69 64.013 56.3505 64.4727 55.6714C64.7604 55.2541 64.9073 54.2978 64.9073 52.8089V35.0356L54.6075 57.4158H53.9571L53.9633 57.422Z" fill="white"/>
<defs>
<linearGradient id="paint0_linear_72_560" x1="82.1893" y1="3.14897" x2="4.48803" y2="87.3516" gradientUnits="userSpaceOnUse">
<stop stop-color="#EF3C46"/>
<stop offset="1" stop-color="#BD0000"/>
</linearGradient>
</defs>
</svg>
