<svg width="89" height="89" viewBox="0 0 89 89" fill="none" xmlns="http://www.w3.org/2000/svg">
<path d="M44.192 85.9227C67.3793 85.9227 86.1763 67.1979 86.1763 44.0997C86.1763 21.0015 67.3793 2.27667 44.192 2.27667C21.0048 2.27667 2.20776 21.0015 2.20776 44.0997C2.20776 67.1979 21.0048 85.9227 44.192 85.9227Z" fill="white"/>
<path d="M40.3461 44.6105L37.6882 55.2197C40.9683 56.0327 51.0837 59.2659 52.5783 53.2823C54.1417 47.0432 43.6261 45.4266 40.3461 44.6105Z" fill="url(#paint0_linear_72_565)"/>
<path d="M43.9699 30.1328L41.5623 39.7545C44.292 40.4335 52.7126 43.1995 54.0759 37.7548C55.4955 32.0764 46.6997 30.8118 43.9699 30.1328V30.1328Z" fill="url(#paint1_linear_72_565)"/>
<path d="M54.8515 1.48864C31.2343 -4.37661 7.3108 9.94232 1.42294 33.4781C-4.46805 57.0076 9.90609 80.8424 33.5201 86.7076C57.1434 92.5729 81.0701 78.2539 86.958 54.7213C92.8459 31.1918 78.4717 7.35389 54.8483 1.48864H54.8515ZM63.6317 37.842C62.9969 42.1218 60.6174 44.1931 57.4561 44.9189C61.7962 47.1709 64.0038 50.6253 61.8994 56.6089C59.2885 64.0409 53.0848 64.667 44.8362 63.1127L42.835 71.1054L37.9977 69.903L39.9739 62.0194C38.72 61.7079 37.438 61.3777 36.1185 61.0195L34.1361 68.9437L29.3051 67.7413L31.3063 59.7331C30.1775 59.4434 29.0268 59.1382 27.8573 58.8485L21.5599 57.2848L23.9613 51.7653C23.9613 51.7653 27.5259 52.7091 27.479 52.6406C28.8486 52.977 29.4552 52.0893 29.6959 51.4974L32.8603 38.8636C33.0385 38.9072 33.2105 38.9509 33.3731 38.9882C33.1793 38.9135 33.0073 38.8636 32.8697 38.8263L35.1273 29.8057C35.1867 28.7809 34.8334 27.4913 32.8728 27.0023C32.951 26.9525 29.3582 26.1333 29.3582 26.1333L30.6465 20.9844L37.3192 22.6447L37.313 22.6696C38.3167 22.9188 39.3485 23.1524 40.4023 23.3922L42.3847 15.4774L47.2188 16.6797L45.277 24.4388C46.5716 24.7347 47.8786 25.0306 49.1512 25.3483L51.0805 17.6391L55.9177 18.8414L53.9353 26.7594C60.0452 28.8556 64.5103 31.9985 63.6317 37.842V37.842Z" fill="url(#paint2_linear_72_565)"/>
<defs>
<linearGradient id="paint0_linear_72_565" x1="82.7994" y1="13.2067" x2="-1.6216" y2="97.9532" gradientUnits="userSpaceOnUse">
<stop stop-color="#FFA706"/>
<stop offset="1" stop-color="#FF5F00"/>
</linearGradient>
<linearGradient id="paint1_linear_72_565" x1="76.5423" y1="6.9739" x2="-7.87861" y2="91.7203" gradientUnits="userSpaceOnUse">
<stop stop-color="#FFA706"/>
<stop offset="1" stop-color="#FF5F00"/>
</linearGradient>
<linearGradient id="paint2_linear_72_565" x1="79.0001" y1="9.42526" x2="-5.42083" y2="94.1717" gradientUnits="userSpaceOnUse">
<stop stop-color="#FFA706"/>
<stop offset="1" stop-color="#FF5F00"/>
</linearGradient>
</defs>
</svg>
