<svg width="148" height="148" viewBox="0 0 148 148" fill="none" xmlns="http://www.w3.org/2000/svg">
<path d="M73.7952 147.505C114.551 147.505 147.59 114.485 147.59 73.7525C147.59 33.0201 114.551 0 73.7952 0C33.0392 0 0 33.0201 0 73.7525C0 114.485 33.0392 147.505 73.7952 147.505Z" fill="url(#paint0_linear_194_3)"/>
<path d="M96.0766 62.1083C96.0766 62.1083 103.298 61.8711 107.18 57.5173C107.417 56.1309 104.538 48.5706 96.0766 47.1071C94.0972 46.7581 49.056 46.9085 49.056 46.9085C49.056 46.9085 37.8276 47.701 36.0854 59.5226V87.1263C36.0854 87.1263 36.1916 99.6343 49.9744 100.585C63.9154 100.691 94.6509 100.585 94.6509 100.585C94.6509 100.585 108.434 100.111 107.589 83.6961C107.537 83.644 105.37 89.7582 96.7576 89.7582H52.5075C52.5075 89.7582 47.966 88.6052 46.8046 83.4319C46.9107 83.484 46.8046 64.7479 46.8046 64.7479C46.8046 64.7479 47.121 57.6754 53.9333 57.6754H90.0553C90.0553 57.6754 94.6489 58.0977 96.0747 62.1083H96.0766Z" fill="white"/>
<path d="M107.625 57.7275C104.209 66.331 95.9165 66.383 95.9165 66.383H61.907C56.6265 66.383 57.1532 71.134 57.1532 71.134V77.0979C57.1532 81.6888 61.4845 81.4266 61.4845 81.4266C61.4845 81.4266 81.5529 81.5327 99.6651 81.4266C109.566 81.0564 116.035 67.5727 107.623 57.7294L107.625 57.7275ZM69.0627 75C69.0627 76.2244 68.0691 77.2174 66.844 77.2174H63.9405C62.7154 77.2174 61.7218 76.2244 61.7218 75V73.2184C61.7218 71.994 62.7154 71.001 63.9405 71.001H66.844C68.0691 71.001 69.0627 71.994 69.0627 73.2184V75Z" fill="white"/>
<defs>
<linearGradient id="paint0_linear_194_3" x1="29.4679" y1="138.209" x2="118.591" y2="8.46469" gradientUnits="userSpaceOnUse">
<stop stop-color="#960000"/>
<stop offset="1" stop-color="#ED1C24"/>
</linearGradient>
</defs>
</svg>
