<svg width="89" height="88" viewBox="0 0 89 88" fill="none" xmlns="http://www.w3.org/2000/svg">
<path d="M44.7146 87.8386C69.0641 87.8386 88.8032 68.1752 88.8032 43.9193C88.8032 19.6633 69.0641 0 44.7146 0C20.3651 0 0.625977 19.6633 0.625977 43.9193C0.625977 68.1752 20.3651 87.8386 44.7146 87.8386Z" fill="white"/>
<path fill-rule="evenodd" clip-rule="evenodd" d="M44.7146 0C20.3658 0 0.625977 19.664 0.625977 43.9193C0.625977 68.1746 20.3658 87.8386 44.7146 87.8386C69.0634 87.8386 88.8032 68.1746 88.8032 43.9193C88.8032 19.664 69.0634 0 44.7146 0ZM31.6193 43.9037L37.9075 20.3648H51.5437L46.7346 38.3998L53.4073 35.9702L53.4636 36.126L51.7782 42.4397L44.9991 44.9067L42.1349 55.6467H64.7921L62.4657 64.281H26.1724L29.8777 50.4075L24.6308 52.3169L26.3662 45.81L31.6162 43.9006L31.6193 43.9037Z" fill="url(#paint0_linear_72_580)"/>
<defs>
<linearGradient id="paint0_linear_72_580" x1="77.3558" y1="0.0249149" x2="10.5742" y2="90.5233" gradientUnits="userSpaceOnUse">
<stop stop-color="#3D5092"/>
<stop offset="1" stop-color="#32313B"/>
</linearGradient>
</defs>
</svg>
