<svg width="89" height="88" viewBox="0 0 89 88" fill="none" xmlns="http://www.w3.org/2000/svg">
<path d="M44.5491 87.9473C68.8985 87.9473 88.6377 68.284 88.6377 44.0281C88.6377 19.7721 68.8985 0.108765 44.5491 0.108765C20.1996 0.108765 0.460449 19.7721 0.460449 44.0281C0.460449 68.284 20.1996 87.9473 44.5491 87.9473Z" fill="url(#paint0_linear_72_571)"/>
<path d="M44.5493 56.3971V68.8035L59.8365 47.4139L44.5493 56.3971Z" fill="white"/>
<path d="M44.5493 37.6021V53.5283L59.8365 44.5202L44.5493 37.6021Z" fill="white"/>
<path d="M44.5493 19.2526V37.6021L59.8365 44.5202L44.5493 19.2526Z" fill="white"/>
<path d="M44.5491 56.3971V68.8035L29.2588 47.4139L44.5491 56.3971Z" fill="white"/>
<path d="M44.5491 37.6021V53.5283L29.2588 44.5202L44.5491 37.6021Z" fill="white"/>
<path d="M44.5491 19.2526V37.6021L29.2588 44.5202L44.5491 19.2526Z" fill="white"/>
<defs>
<linearGradient id="paint0_linear_72_571" x1="82.6466" y1="3.0554" x2="4.94848" y2="87.258" gradientUnits="userSpaceOnUse">
<stop stop-color="#7D78EF"/>
<stop offset="1" stop-color="#323170"/>
</linearGradient>
</defs>
</svg>
