<?xml version="1.0" encoding="UTF-8"?><svg xmlns="http://www.w3.org/2000/svg" xmlns:xlink="http://www.w3.org/1999/xlink" viewBox="0 0 393.02 392.79"><defs><style>.g{fill:#fff;}.h{fill:url(#d);}</style><linearGradient id="d" x1="29.08" y1="313" x2="351.56" y2="88.41" gradientTransform="matrix(1, 0, 0, 1, 0, 0)" gradientUnits="userSpaceOnUse"><stop offset="0" stop-color="#2573c2"/><stop offset="1" stop-color="#3ca8ff"/></linearGradient></defs><g id="a"/><g id="b"><g id="c"><g><path class="h" d="M196.51,392.79c108.53,0,196.51-87.93,196.51-196.4S305.04,0,196.51,0,0,87.93,0,196.4s87.98,196.4,196.51,196.4Z"/><g><path id="e" class="g" d="M295.87,156.32c-.22-3.37-1.19-6.73-2.93-9.67-1.52-3.04-4.24-5.43-7.39-6.63-3.26-1.63-6.84-2.39-10.43-2.28H140l-9.67,29h122.41l-19.33,59.3H111l-9.67,29H237.11c4.04-.11,8.04-.88,11.84-2.28,3.8-2.17,8.15-4.34,11.84-7.39,3.58-2.82,6.84-6.08,9.67-9.67,2.39-3.58,4.34-7.28,5.97-11.19l17.92-56.37c1.63-3.69,2.17-7.82,1.52-11.84h0Z"/><path id="f" class="g" d="M178.56,182.93H106.55l-9.67,26.83h72.77l8.91-26.83Z"/></g></g></g></g></svg>