<svg width="149" height="148" viewBox="0 0 149 148" fill="none" xmlns="http://www.w3.org/2000/svg">
<path d="M74.7928 147.505C115.549 147.505 148.588 114.485 148.588 73.7525C148.588 33.0201 115.549 0 74.7928 0C34.0368 0 0.997559 33.0201 0.997559 73.7525C0.997559 114.485 34.0368 147.505 74.7928 147.505Z" fill="url(#paint0_linear_194_8)"/>
<path d="M97.5662 82.5951C94.8575 80.9658 91.7166 80.2022 88.5622 80.4105C86.8181 80.4105 85.1474 79.7182 83.9145 78.4861C82.6817 77.254 81.9891 75.5843 81.9891 73.8412C82.0431 72.1155 82.7531 70.4765 83.9744 69.256C85.1956 68.0355 86.8374 67.3259 88.5622 67.2719C91.705 67.3394 94.8092 66.5797 97.5662 65.0719C100.045 63.5872 102.094 61.4797 103.506 58.9596C104.919 56.4395 105.646 53.5915 105.617 50.7031C105.673 47.8128 104.959 44.9591 103.547 42.4352C102.135 39.9112 100.074 37.8095 97.5778 36.346C95.0832 34.8825 92.2413 34.1093 89.3493 34.1074C86.4554 34.1055 83.6155 34.8729 81.1171 36.3325C78.6341 37.8153 76.5833 39.9228 75.1672 42.4429C73.7511 44.963 73.0218 47.8109 73.0488 50.7031C73.2167 53.7632 74.0655 56.748 75.5299 59.4397C75.991 60.1685 76.3054 60.9822 76.4521 61.8306C76.5987 62.6809 76.5775 63.5525 76.3884 64.3932C76.1993 65.2358 75.8463 66.0321 75.3485 66.7359C74.8507 67.4416 74.2199 68.0413 73.4906 68.504C72.0591 69.3351 70.3555 69.5645 68.7523 69.1422C67.151 68.72 65.7812 67.6826 64.9458 66.2538L64.8146 66.007C63.25 63.3886 61.1297 61.1461 58.6042 59.4378C56.0865 58.0572 53.2601 57.3322 50.3874 57.3322C47.5147 57.3322 44.6883 58.0572 42.1706 59.4378C39.6548 60.907 37.5712 63.0145 36.1319 65.5462C34.6927 68.0779 33.946 70.9451 33.9711 73.8566C33.9171 76.7469 34.6348 79.5987 36.0489 82.1188C37.4631 84.6389 39.5236 86.7387 42.0182 88.2003C44.5127 89.6618 47.3526 90.4331 50.2446 90.435C53.1366 90.435 55.9765 89.6695 58.473 88.2099C61.066 86.5825 63.2037 84.3208 64.6834 81.6406C65.0654 80.8983 65.5902 80.2389 66.2269 79.7009C66.8635 79.1629 67.6024 78.7542 68.3973 78.5016C69.1922 78.249 70.0295 78.1545 70.861 78.2258C71.6925 78.2972 72.5028 78.5305 73.2437 78.9161L73.67 79.1456C74.407 79.5948 75.0476 80.1849 75.5569 80.8829C76.0662 81.5809 76.4328 82.3714 76.6353 83.2102C76.8379 84.0489 76.8746 84.9205 76.7395 85.7727C76.6064 86.625 76.3054 87.4425 75.8559 88.1791C74.2855 90.8438 73.4424 93.8729 73.4077 96.9657C73.3536 99.8561 74.0713 102.708 75.4855 105.228C76.8997 107.748 78.9601 109.848 81.4547 111.309C83.9493 112.771 86.7892 113.542 89.6812 113.544C92.5732 113.544 95.4131 112.779 97.9096 111.319C100.391 109.838 102.44 107.735 103.856 105.216C105.272 102.698 106.003 99.8541 105.978 96.9657C105.92 94.0523 105.117 91.2005 103.643 88.6862C102.171 86.1699 100.078 84.074 97.5642 82.597L97.5662 82.5951Z" fill="white"/>
<defs>
<linearGradient id="paint0_linear_194_8" x1="134.859" y1="-8.78281" x2="29.1315" y2="136.661" gradientUnits="userSpaceOnUse">
<stop stop-color="#00B1F1"/>
<stop offset="1" stop-color="#0F72E5"/>
</linearGradient>
</defs>
</svg>
