<svg width="147" height="147" viewBox="0 0 147 147" fill="none" xmlns="http://www.w3.org/2000/svg">
<g clip-path="url(#clip0_212_7)">
<path d="M73.5 143.477C112.153 143.477 143.487 112.145 143.487 73.4948C143.487 34.8449 112.153 3.51291 73.5 3.51291C34.8474 3.51291 3.51318 34.8449 3.51318 73.4948C3.51318 112.145 34.8474 143.477 73.5 143.477Z" fill="white"/>
<path d="M68.5796 77.6957L74.5009 95.0048C79.8331 93.1754 96.9298 88.5628 93.5834 78.8006C90.1016 68.6216 73.9119 75.8715 68.5796 77.6905V77.6957Z" fill="url(#paint0_linear_212_7)"/>
<path d="M60.4951 54.0748L65.8691 69.7734C70.3049 68.2567 84.6077 64.5197 81.5688 55.6332C78.3945 46.3662 64.9361 52.5529 60.4951 54.0696V54.0748Z" fill="url(#paint1_linear_212_7)"/>
<path d="M49.6946 3.97651C11.3053 17.116 -9.16897 58.8956 3.9819 97.2926C17.1171 135.684 58.8997 156.157 97.289 143.023C135.689 129.878 156.163 88.1038 143.017 49.7068C129.877 11.315 88.0943 -9.163 49.6946 3.97651ZM95.0216 47.106C98.024 53.694 96.5697 58.7549 92.8063 62.6431C100.927 61.8769 107.156 64.7279 109.653 75.0425C112.754 87.8484 104.638 94.3478 91.6805 99.6276L96.1423 112.668L88.282 115.358L83.8827 102.489C81.8447 103.187 79.7545 103.886 77.5809 104.574L82.0063 117.505L74.1512 120.194L69.6737 107.133C67.8285 107.753 65.9469 108.363 64.0391 109.009L53.8072 112.512L52.1549 102.583C52.1549 102.583 58.0032 100.686 57.8729 100.628C60.0934 99.8622 60.1403 98.064 59.937 97.0164L52.8846 76.3976C53.1713 76.2986 53.4528 76.2048 53.7134 76.111C53.3746 76.1787 53.0827 76.2673 52.8638 76.3403L47.8286 61.6215C46.979 60.1309 45.311 58.635 42.1262 59.7243C42.1888 59.5836 36.4186 61.6841 36.4186 61.6841L33.5414 53.2875L44.3884 49.5817L44.404 49.6234C46.0303 49.0658 47.6931 48.4612 49.3871 47.8409L44.967 34.9255L52.8273 32.2361L57.164 44.8961C59.2437 44.1352 61.3443 43.3742 63.4136 42.6654L59.1082 30.0888L66.9685 27.3994L71.3886 40.3148C81.8447 37.7296 90.9559 38.0996 95.0373 47.106H95.0216Z" fill="url(#paint2_linear_212_7)"/>
</g>
<defs>
<linearGradient id="paint0_linear_212_7" x1="99.4672" y1="-4.84527" x2="57.5551" y2="190.487" gradientUnits="userSpaceOnUse">
<stop stop-color="#3FA888"/>
<stop offset="1" stop-color="#009A55"/>
</linearGradient>
<linearGradient id="paint1_linear_212_7" x1="85.0452" y1="-7.9395" x2="43.1331" y2="187.393" gradientUnits="userSpaceOnUse">
<stop stop-color="#3FA888"/>
<stop offset="1" stop-color="#007E55"/>
</linearGradient>
<linearGradient id="paint2_linear_212_7" x1="90.7098" y1="-6.72435" x2="48.8021" y2="188.605" gradientUnits="userSpaceOnUse">
<stop stop-color="#3FA888"/>
<stop offset="1" stop-color="#007E55"/>
</linearGradient>
<clipPath id="clip0_212_7">
<rect width="147" height="147" fill="white"/>
</clipPath>
</defs>
</svg>
