<svg width="89" height="88" viewBox="0 0 89 88" fill="none" xmlns="http://www.w3.org/2000/svg">
<path d="M45.7249 28.9431H39.4243V41.3153H49.3364V46.4953H39.4243V58.8674H46.0313C47.7292 58.8674 59.9708 59.0574 59.9521 44.4737C59.9333 29.89 48.0794 28.9462 45.7249 28.9462V28.9431Z" fill="url(#paint0_linear_72_583)"/>
<path d="M44.6648 0C20.316 0 0.576172 19.664 0.576172 43.9193C0.576172 68.1746 20.316 87.8386 44.6648 87.8386C69.0136 87.8386 88.7534 68.1746 88.7534 43.9193C88.7534 19.664 69.0136 0 44.6648 0ZM46.3971 67.6388H30.4314V46.4921H24.8031V41.3122H30.4314V20.1686H44.1364C47.3789 20.1686 68.851 19.4989 68.851 44.3024C68.851 69.1059 46.4002 67.6419 46.4002 67.6419L46.3971 67.6388Z" fill="url(#paint1_linear_72_583)"/>
<defs>
<linearGradient id="paint0_linear_72_583" x1="87.4308" y1="13.1571" x2="-6.95692" y2="82.8058" gradientUnits="userSpaceOnUse">
<stop stop-color="#B69B31"/>
<stop offset="1" stop-color="#A46327"/>
</linearGradient>
<linearGradient id="paint1_linear_72_583" x1="87.165" y1="12.7989" x2="-7.2228" y2="82.4477" gradientUnits="userSpaceOnUse">
<stop stop-color="#B69B31"/>
<stop offset="1" stop-color="#A46327"/>
</linearGradient>
</defs>
</svg>
