<svg width="89" height="89" viewBox="0 0 89 89" fill="none" xmlns="http://www.w3.org/2000/svg">
<path d="M44.1306 88.667C68.4801 88.667 88.2192 69.0037 88.2192 44.7477C88.2192 20.4918 68.4801 0.82843 44.1306 0.82843C19.7811 0.82843 0.0419922 20.4918 0.0419922 44.7477C0.0419922 69.0037 19.7811 88.667 44.1306 88.667Z" fill="url(#paint0_linear_72_586)"/>
<path d="M48.9462 38.5429V32.7587H62.229V23.9437H26.0639V32.7587H39.3467V38.5398C28.5528 39.0351 20.4355 41.1625 20.4355 43.7136C20.4355 46.2646 28.556 48.3952 39.3467 48.8904V67.4238H48.9524V48.8904C59.7276 48.3952 67.8293 46.2677 67.8293 43.7167C67.8293 41.1656 59.7276 39.0382 48.9524 38.5429M48.9524 47.3174C48.6804 47.3299 47.2889 47.414 44.1902 47.414C41.7106 47.414 39.969 47.3455 39.353 47.3112V47.3174C29.8161 46.8969 22.6963 45.243 22.6963 43.2619C22.6963 41.2809 29.8161 39.63 39.353 39.2095V45.6697C39.9784 45.7133 41.7638 45.8161 44.2309 45.8161C47.1921 45.8161 48.6804 45.6946 48.9556 45.6697V39.2095C58.4737 39.6331 65.5779 41.2871 65.5779 43.2619C65.5779 45.2367 58.4737 46.8907 48.9556 47.3143" fill="white"/>
<defs>
<linearGradient id="paint0_linear_72_586" x1="82.2282" y1="3.77507" x2="4.53003" y2="87.9777" gradientUnits="userSpaceOnUse">
<stop stop-color="#3FA888"/>
<stop offset="1" stop-color="#007E55"/>
</linearGradient>
</defs>
</svg>
