<svg width="90" height="88" viewBox="0 0 90 88" fill="none" xmlns="http://www.w3.org/2000/svg">
<path d="M44.9841 88C69.3336 88 89.0727 68.3367 89.0727 44.0807C89.0727 19.8248 69.3336 0.161438 44.9841 0.161438C20.6347 0.161438 0.895508 19.8248 0.895508 44.0807C0.895508 68.3367 20.6347 88 44.9841 88Z" fill="url(#paint0_linear_72_589)"/>
<path d="M57.0381 30.7741L24.5063 24.8123L41.6227 67.7099L65.465 38.7855L57.0381 30.7741V30.7741ZM56.5128 33.4217L61.4907 38.1438L47.8951 40.6015L56.5128 33.4249V33.4217ZM44.9278 40.1L30.5881 28.248L54.0238 32.5402L44.9278 40.1V40.1ZM43.899 42.1994L41.5758 61.4429L28.9621 29.8241L43.899 42.1994ZM46.0785 43.2023L61.1343 40.4831L43.8521 61.4678L46.0785 43.2023Z" fill="white"/>
<defs>
<linearGradient id="paint0_linear_72_589" x1="83.0848" y1="3.10808" x2="5.38354" y2="87.3107" gradientUnits="userSpaceOnUse">
<stop stop-color="#D83C46"/>
<stop offset="1" stop-color="#9D0000"/>
</linearGradient>
</defs>
</svg>
