<svg width="148" height="148" viewBox="0 0 148 148" fill="none" xmlns="http://www.w3.org/2000/svg">
<path d="M74.2049 147.505C114.961 147.505 148 114.485 148 73.7525C148 33.0201 114.961 0 74.2049 0C33.4489 0 0.409668 33.0201 0.409668 73.7525C0.409668 114.485 33.4489 147.505 74.2049 147.505Z" fill="url(#paint0_linear_194_11)"/>
<path d="M100.167 51.1697L91.4566 55.6065L49.3904 77.0207C49.2477 75.9371 49.1763 74.8438 49.1763 73.7505C49.1936 59.9179 60.4298 48.719 74.2686 48.7383C78.5362 48.7441 82.7304 49.8374 86.4539 51.9179L91.4412 49.3785L92.1858 48.9986C78.5053 39.0743 59.3648 42.1131 49.4348 55.7877C45.6399 61.0131 43.5968 67.3047 43.5968 73.7602C43.5968 74.5392 43.6257 75.3162 43.6855 76.0875C43.8553 78.3261 42.663 80.4471 40.6604 81.4651L38.0308 82.8052V89.0544L45.7711 85.1113L48.2772 83.8329L50.7467 82.5758L95.0933 59.9931L100.077 57.4575L110.377 52.211V45.9637L100.165 51.1697H100.167Z" fill="white"/>
<path d="M110.379 58.464L53.2683 87.5254L48.2849 90.0667L38.0308 95.2882V101.532L48.2135 96.3468L56.9243 91.91L99.0329 70.465C99.1756 71.5563 99.247 72.6554 99.247 73.7563C99.2393 87.589 88.0109 98.7955 74.1721 98.7859C69.8852 98.784 65.6717 97.6811 61.9308 95.5871L61.624 95.749L56.2182 98.5025C69.8987 108.429 89.0392 105.392 98.9712 91.7192C102.764 86.4977 104.809 80.2099 104.811 73.7563C104.811 72.9696 104.78 72.1849 104.722 71.4078C104.553 69.1711 105.745 67.0502 107.744 66.0302L110.375 64.6901V58.4621L110.379 58.464Z" fill="white"/>
<defs>
<linearGradient id="paint0_linear_194_11" x1="29.8776" y1="138.209" x2="119" y2="8.46469" gradientUnits="userSpaceOnUse">
<stop stop-color="#002867"/>
<stop offset="1" stop-color="#0071BC"/>
</linearGradient>
</defs>
</svg>
