<svg width="89" height="89" viewBox="0 0 89 89" fill="none" xmlns="http://www.w3.org/2000/svg">
<path d="M44.3088 88.7075C68.6583 88.7075 88.3974 69.0441 88.3974 44.7882C88.3974 20.5322 68.6583 0.868896 44.3088 0.868896C19.9594 0.868896 0.220215 20.5322 0.220215 44.7882C0.220215 69.0441 19.9594 88.7075 44.3088 88.7075Z" fill="url(#paint0_linear_72_607)"/>
<path d="M48.6425 38.5429V32.7587H61.9253V23.9437H25.7602V32.7587H39.043V38.5398C28.2491 39.0351 20.1318 41.1625 20.1318 43.7136C20.1318 46.2646 28.2523 48.3952 39.043 48.8904V67.4238H48.6487V48.8904C59.4238 48.3952 67.5256 46.2677 67.5256 43.7167C67.5256 41.1656 59.4238 39.0382 48.6487 38.5429M48.6487 47.3174C48.3767 47.3299 46.9852 47.414 43.8865 47.414C41.4069 47.414 39.6653 47.3455 39.0493 47.3112V47.3174C29.5124 46.8969 22.3925 45.243 22.3925 43.2619C22.3925 41.2809 29.5124 39.63 39.0493 39.2095V45.6697C39.6747 45.7133 41.4601 45.8161 43.9272 45.8161C46.8883 45.8161 48.3767 45.6946 48.6518 45.6697V39.2095C58.17 39.6331 65.2742 41.2871 65.2742 43.2619C65.2742 45.2367 58.17 46.8907 48.6518 47.3143" fill="white"/>
<path d="M62.4447 38.87C69.1797 38.87 74.6394 33.4312 74.6394 26.7221C74.6394 20.013 69.1797 14.5742 62.4447 14.5742C55.7098 14.5742 50.25 20.013 50.25 26.7221C50.25 33.4312 55.7098 38.87 62.4447 38.87Z" fill="url(#paint1_linear_72_607)"/>
<path d="M65.7779 23.0404L56.7788 21.3926L61.5129 33.2571L68.1074 25.2582L65.7779 23.0435V23.0404ZM65.6309 23.7724L67.0067 25.0775L63.2451 25.7565L65.6278 23.7724H65.6309ZM62.4259 25.6195L58.4611 22.3427L64.9431 23.5294L62.4259 25.6195ZM62.1414 26.1988L61.5004 31.5221L58.0108 22.7756L62.1414 26.1988ZM62.7449 26.4761L66.9099 25.7254L62.1289 31.5283L62.7449 26.4761Z" fill="white"/>
<defs>
<linearGradient id="paint0_linear_72_607" x1="82.4095" y1="3.81554" x2="4.71138" y2="88.0182" gradientUnits="userSpaceOnUse">
<stop stop-color="#3FA888"/>
<stop offset="1" stop-color="#007E55"/>
</linearGradient>
<linearGradient id="paint1_linear_72_607" x1="72.9822" y1="15.3903" x2="51.4932" y2="38.6783" gradientUnits="userSpaceOnUse">
<stop stop-color="#D83C46"/>
<stop offset="1" stop-color="#9D0000"/>
</linearGradient>
</defs>
</svg>
