<svg width="89" height="88" viewBox="0 0 89 88" fill="none" xmlns="http://www.w3.org/2000/svg">
<path d="M44.9114 87.8879C69.2608 87.8879 89 68.2246 89 43.9686C89 19.7127 69.2608 0.0493164 44.9114 0.0493164C20.5619 0.0493164 0.822754 19.7127 0.822754 43.9686C0.822754 68.2246 20.5619 87.8879 44.9114 87.8879Z" fill="url(#paint0_linear_72_592)"/>
<path d="M36.7877 40.6451L44.9144 32.5496L53.0442 40.6482L57.7721 35.9385L44.9144 23.1303L32.06 35.9354L36.7877 40.6451M23.9927 43.9717L28.7205 39.2621L33.4483 43.9717L28.7205 48.6814L23.9927 43.9717ZM36.7877 47.2984L44.9144 55.3939L53.0442 47.2953L57.7752 52.0018L44.9175 64.8131L32.0631 52.008L32.0568 52.0018L36.7909 47.2984M56.3806 43.9748L61.1084 39.2652L65.8362 43.9748L61.1084 48.6845L56.3806 43.9748Z" fill="white"/>
<path d="M49.7081 43.9686L44.9115 39.1904L41.3657 42.7227L40.9592 43.1276L40.1181 43.9655L40.1118 43.9717L40.1181 43.9779L44.9115 48.753L49.7081 43.9748L49.705 43.9686" fill="white"/>
<defs>
<linearGradient id="paint0_linear_72_592" x1="83.0121" y1="2.99907" x2="5.31392" y2="87.2017" gradientUnits="userSpaceOnUse">
<stop stop-color="#F0B90B"/>
<stop offset="1" stop-color="#F7931E"/>
</linearGradient>
</defs>
</svg>
