<svg width="32" height="32" viewBox="0 0 32 32" fill="none" xmlns="http://www.w3.org/2000/svg">
<path d="M16.5719 14.9331C16.7215 14.9331 15.8613 15.2318 29.7795 10.0692C29.913 10.0201 30.0213 9.9198 30.0805 9.79066C30.1397 9.66151 30.1448 9.51414 30.0947 9.38121C27.9796 3.75171 22.5951 0.0163073 16.5719 0C16.2768 0 16.0376 0.238778 16.0376 0.533326V14.3998C16.0376 14.6944 16.2768 14.9331 16.5719 14.9331ZM17.1062 1.06665C22.2932 1.29077 26.8856 4.48111 28.8979 9.25855L17.1062 13.6318V1.06665Z" fill="#22DDCD"/>
<path d="M28.8606 17.6C28.8662 15.8817 28.5621 14.1763 27.963 12.5654C27.9107 12.4311 27.8064 12.3236 27.6735 12.2674C27.5407 12.2111 27.3907 12.2109 27.2577 12.2667L14.969 16.832V3.73352C14.969 3.43898 14.7298 3.2002 14.4347 3.2002C8.59316 3.19676 3.32612 6.71024 1.09454 12.0991C-1.13704 17.4879 0.107409 23.6881 4.24644 27.8029C8.38547 31.9177 14.6019 33.1347 19.9914 30.8852C23.6505 32.9846 28.3138 31.8915 30.6543 28.3857C32.9948 24.8798 32.2103 20.1629 28.8606 17.6ZM13.9005 4.26685V16.928L1.57441 14.0321C3.10277 8.43733 8.09499 4.48228 13.9005 4.26685ZM1.32329 15.072L13.7402 17.984L9.62615 30.0159C3.60415 27.6922 0.10911 21.4017 1.32329 15.072ZM10.6146 30.3625L14.8568 18.0107L27.1455 13.4561C27.5163 14.5755 27.7337 15.7398 27.792 16.9174C24.1592 15.0006 19.6627 16.1368 17.3812 19.5481C15.0997 22.9594 15.7725 27.5404 18.9388 30.1545C16.2585 31.1149 13.3396 31.1879 10.6146 30.3625ZM24.052 30.9332C20.2159 30.9332 17.1062 27.8291 17.1062 23.9999C17.1062 20.1708 20.2159 17.0667 24.052 17.0667C27.888 17.0667 30.9977 20.1708 30.9977 23.9999C30.9977 25.8387 30.2659 27.6022 28.9633 28.9025C27.6608 30.2027 25.8941 30.9332 24.052 30.9332Z" fill="#22DDCD"/>
<path d="M27.6371 20.4214C27.5367 20.3205 27.4002 20.2637 27.2577 20.2637C27.1153 20.2637 26.9787 20.3205 26.8784 20.4214L20.4669 26.8213C20.3128 26.9739 20.2665 27.2044 20.3497 27.4045C20.4329 27.6046 20.6292 27.7346 20.8463 27.7333C20.9883 27.7342 21.1248 27.6785 21.2256 27.5787L27.6371 21.1788C27.7382 21.0786 27.7951 20.9423 27.7951 20.8001C27.7951 20.6579 27.7382 20.5216 27.6371 20.4214Z" fill="#22DDCD"/>
<path d="M22.9833 21.3334C22.9833 20.4497 22.2657 19.7334 21.3805 19.7334C20.4952 19.7334 19.7776 20.4497 19.7776 21.3334C19.7776 22.217 20.4952 22.9334 21.3805 22.9334C22.2657 22.9334 22.9833 22.217 22.9833 21.3334ZM20.8462 21.3334C20.8462 21.0388 21.0854 20.8001 21.3805 20.8001C21.6755 20.8001 21.9147 21.0388 21.9147 21.3334C21.9147 21.6279 21.6755 21.8667 21.3805 21.8667C21.0854 21.8667 20.8462 21.6279 20.8462 21.3334Z" fill="#22DDCD"/>
<path d="M26.7235 25.0664C25.8382 25.0664 25.1206 25.7827 25.1206 26.6664C25.1206 27.55 25.8382 28.2664 26.7235 28.2664C27.6087 28.2664 28.3263 27.55 28.3263 26.6664C28.3263 25.7827 27.6087 25.0664 26.7235 25.0664ZM26.7235 27.1997C26.4284 27.1997 26.1892 26.9609 26.1892 26.6664C26.1892 26.3718 26.4284 26.1331 26.7235 26.1331C27.0186 26.1331 27.2578 26.3718 27.2578 26.6664C27.2578 26.9609 27.0186 27.1997 26.7235 27.1997Z" fill="#22DDCD"/>
</svg>
