<svg width="210" height="90" viewBox="0 0 210 90" fill="none" xmlns="http://www.w3.org/2000/svg">
<rect width="210" height="90" fill="#0F322F"/>
<path d="M66.9885 44.958L66.3965 47.3345C67.1303 47.5179 69.3858 48.2433 69.7235 46.9008C70.0696 45.5041 67.7181 45.1415 66.9885 44.958Z" fill="white"/>
<path d="M67.7974 41.7148L67.2595 43.8703C67.8682 44.0204 69.7485 44.6417 70.0529 43.4201C70.3698 42.1527 68.4061 41.8649 67.7974 41.7148Z" fill="white"/>
<path d="M70.228 35.294C64.9539 33.9807 59.6131 37.191 58.2956 42.4651C56.9781 47.7392 60.1884 53.0841 65.4625 54.3974C70.7366 55.7108 76.0817 52.5046 77.395 47.2263C78.7125 41.9522 75.5021 36.6073 70.228 35.294ZM72.1875 43.4448C72.0458 44.4037 71.5122 44.8665 70.8075 45.0333C71.7748 45.5378 72.271 46.3133 71.7998 47.6516C71.2161 49.3193 69.8319 49.4569 67.9891 49.1109L67.543 50.9037L66.4632 50.6326L66.9051 48.8648C66.6258 48.794 66.3381 48.7232 66.0462 48.6398L65.6043 50.4158L64.5244 50.1448L64.9706 48.3478C64.7163 48.2811 64.4619 48.2144 64.1993 48.1477L62.7942 47.7976L63.332 46.5592C63.332 46.5592 64.1284 46.7719 64.1159 46.7553C64.4202 46.8303 64.5578 46.6301 64.612 46.4967L65.3166 43.6658C65.3583 43.6741 65.3958 43.6867 65.4292 43.695C65.3875 43.6783 65.3458 43.6658 65.3166 43.6574L65.8211 41.6354C65.8336 41.4061 65.7544 41.1142 65.3166 41.0058C65.3333 40.9933 64.5328 40.8099 64.5328 40.8099L64.8205 39.655L66.3089 40.026V40.0302C66.534 40.0844 66.7634 40.1387 66.9968 40.1929L67.4388 38.4167L68.5186 38.6877L68.085 40.4263C68.3727 40.493 68.6646 40.5597 68.9481 40.6305L69.3775 38.9045L70.4573 39.1755L70.0154 40.9516C71.3871 41.4269 72.3835 42.1315 72.1875 43.4448Z" fill="white"/>
<path d="M86.8551 40.9557C87.6555 40.9557 88.3435 41.0974 88.923 41.3809C89.5067 41.6645 89.9862 42.048 90.3698 42.5275C90.7492 43.0111 91.0326 43.574 91.2161 44.2244C91.3995 44.8748 91.4871 45.5711 91.4871 46.3174C91.4871 47.4639 91.2786 48.548 90.8534 49.5694C90.4281 50.5909 89.8527 51.4789 89.1231 52.2377C88.3893 52.9923 87.5263 53.5886 86.5298 54.0305C85.5334 54.4725 84.4535 54.6892 83.2903 54.6892C83.1402 54.6892 82.8776 54.6851 82.5024 54.6768C82.1313 54.6684 81.7018 54.6309 81.2224 54.5642C80.7387 54.4975 80.2301 54.3974 79.6881 54.264C79.1503 54.1348 78.6374 53.9513 78.1538 53.7178L82.4648 35.6024L86.3255 35.002L84.7829 41.431C85.1123 41.2809 85.4459 41.1683 85.7794 41.0808C86.1171 41.0015 86.4756 40.9557 86.8551 40.9557ZM83.6155 51.6248C84.1951 51.6248 84.7454 51.4831 85.2582 51.1996C85.7752 50.9202 86.2213 50.5367 86.5924 50.0655C86.9676 49.5902 87.2595 49.0565 87.4763 48.4562C87.6931 47.86 87.8015 47.2346 87.8015 46.5842C87.8015 45.7878 87.6681 45.1666 87.4012 44.7163C87.1344 44.2702 86.6424 44.0452 85.9295 44.0452C85.696 44.0452 85.3958 44.0909 85.0206 44.1702C84.6453 44.2535 84.3118 44.4286 84.0116 44.6955L82.3689 51.5206C82.469 51.5373 82.5565 51.5539 82.6316 51.5706C82.7066 51.5873 82.7859 51.5998 82.8651 51.6081C82.9485 51.6165 83.0485 51.6207 83.1653 51.6207C83.2862 51.6248 83.4321 51.6248 83.6155 51.6248Z" fill="white"/>
<path d="M95.4937 54.343H91.804L94.9184 41.2349H98.6332L95.4937 54.343ZM97.2907 39.638C96.7779 39.638 96.3109 39.4837 95.894 39.1794C95.4771 38.875 95.2686 38.4039 95.2686 37.7702C95.2686 37.42 95.3395 37.0947 95.4812 36.7862C95.623 36.4777 95.8106 36.2151 96.0441 35.9899C96.2776 35.7648 96.5486 35.5897 96.8529 35.4521C97.1614 35.3187 97.4908 35.252 97.8369 35.252C98.3497 35.252 98.8167 35.4063 99.2294 35.7106C99.6422 36.0191 99.8506 36.4902 99.8506 37.1198C99.8506 37.47 99.7798 37.7994 99.638 38.1038C99.4963 38.4123 99.3128 38.6749 99.0793 38.9001C98.85 39.1252 98.5748 39.3003 98.2705 39.4337C97.9661 39.5755 97.6368 39.638 97.2907 39.638Z" fill="white"/>
<path d="M101.869 37.9705L105.733 37.3701L104.783 41.235H108.919L108.172 44.2743H104.062L102.965 48.8605C102.865 49.2441 102.807 49.5985 102.79 49.932C102.773 50.2656 102.815 50.5533 102.915 50.7909C103.015 51.0328 103.194 51.2204 103.453 51.3497C103.711 51.4831 104.078 51.5498 104.562 51.5498C104.958 51.5498 105.346 51.5122 105.721 51.4372C106.092 51.3621 106.471 51.2621 106.855 51.1245L107.13 53.9679C106.634 54.1513 106.092 54.3098 105.512 54.439C104.929 54.5725 104.241 54.6392 103.445 54.6392C102.298 54.6392 101.41 54.4682 100.776 54.1305C100.142 53.7886 99.6964 53.3216 99.4295 52.7338C99.1669 52.1459 99.0459 51.4664 99.0793 50.7034C99.1126 49.9363 99.2294 49.1316 99.4295 48.2852L101.869 37.9705Z" fill="white"/>
<path d="M108.756 49.1065C108.756 47.9767 108.94 46.9135 109.302 45.9171C109.665 44.9206 110.19 44.0451 110.874 43.2988C111.554 42.5525 112.379 41.9646 113.355 41.531C114.322 41.1016 115.41 40.8848 116.607 40.8848C117.357 40.8848 118.024 40.9556 118.612 41.0974C119.204 41.2392 119.738 41.4268 120.222 41.6561L118.95 44.5496C118.616 44.4161 118.275 44.2952 117.916 44.1868C117.557 44.0784 117.124 44.0242 116.607 44.0242C115.377 44.0242 114.401 44.4495 113.68 45.2959C112.959 46.1422 112.596 47.2804 112.596 48.7105C112.596 49.5568 112.78 50.2406 113.146 50.7659C113.509 51.2912 114.185 51.5498 115.164 51.5498C115.648 51.5498 116.115 51.4997 116.561 51.3996C117.011 51.2996 117.407 51.1745 117.758 51.0244L118.033 53.9887C117.566 54.168 117.053 54.3348 116.486 54.4766C115.919 54.6142 115.248 54.6851 114.468 54.6851C113.438 54.6851 112.567 54.5349 111.854 54.2389C111.141 53.9387 110.549 53.5384 110.086 53.0298C109.619 52.5211 109.286 51.9292 109.077 51.2454C108.865 50.57 108.756 49.8528 108.756 49.1065Z" fill="white"/>
<path d="M125.141 54.6894C124.262 54.6894 123.494 54.556 122.848 54.2892C122.202 54.0223 121.664 53.6513 121.243 53.1677C120.818 52.6882 120.501 52.117 120.284 51.4624C120.067 50.8078 119.963 50.0782 119.963 49.2819C119.963 48.2854 120.122 47.2848 120.447 46.2884C120.768 45.2919 121.247 44.3956 121.881 43.5992C122.511 42.8029 123.286 42.1483 124.195 41.6397C125.108 41.1352 126.154 40.8809 127.334 40.8809C128.197 40.8809 128.96 41.0143 129.615 41.2811C130.27 41.5479 130.807 41.9231 131.233 42.4026C131.654 42.8862 131.975 43.4533 132.192 44.112C132.408 44.7666 132.517 45.4962 132.517 46.2926C132.517 47.289 132.358 48.2854 132.046 49.286C131.733 50.2783 131.266 51.179 130.649 51.9753C130.036 52.7716 129.269 53.4262 128.343 53.9307C127.426 54.4351 126.355 54.6894 125.141 54.6894ZM126.984 44.0245C126.438 44.0245 125.954 44.1829 125.542 44.4956C125.125 44.8124 124.779 45.2127 124.495 45.6922C124.212 46.1758 123.999 46.7012 123.857 47.2765C123.715 47.8519 123.645 48.3939 123.645 48.9067C123.645 49.7364 123.778 50.3867 124.041 50.8537C124.307 51.3165 124.787 51.55 125.487 51.55C126.038 51.55 126.517 51.3915 126.934 51.0747C127.347 50.7578 127.697 50.3618 127.981 49.8782C128.264 49.3987 128.477 48.8692 128.619 48.2938C128.756 47.7226 128.827 47.1764 128.827 46.6636C128.827 45.8339 128.694 45.1835 128.427 44.7207C128.168 44.2579 127.685 44.0245 126.984 44.0245Z" fill="white"/>
<path d="M136.536 54.343H132.846L135.961 41.2349H139.675L136.536 54.343ZM138.329 39.638C137.816 39.638 137.349 39.4837 136.936 39.1794C136.519 38.875 136.311 38.4039 136.311 37.7702C136.311 37.42 136.382 37.0947 136.523 36.7862C136.665 36.4777 136.853 36.2151 137.086 35.9899C137.32 35.7648 137.591 35.5897 137.895 35.4521C138.204 35.3187 138.529 35.252 138.879 35.252C139.396 35.252 139.859 35.4063 140.276 35.7106C140.693 36.0191 140.901 36.4902 140.901 37.1198C140.901 37.47 140.826 37.7994 140.689 38.1038C140.551 38.4123 140.363 38.6749 140.13 38.9001C139.896 39.1252 139.625 39.3003 139.321 39.4337C139.004 39.5755 138.679 39.638 138.329 39.638Z" fill="white"/>
<path d="M142.335 41.831C142.615 41.7476 142.927 41.6518 143.269 41.5434C143.611 41.435 143.991 41.3348 144.416 41.2473C144.837 41.1555 145.312 41.0806 145.833 41.0222C146.355 40.9638 146.951 40.9346 147.614 40.9346C149.561 40.9346 150.899 41.5016 151.641 42.6315C152.379 43.7614 152.508 45.3082 152.029 47.2678L150.332 54.343H146.621L148.264 47.4136C148.364 46.98 148.443 46.5631 148.502 46.1545C148.56 45.7501 148.556 45.3916 148.489 45.0831C148.422 44.7787 148.268 44.5285 148.031 44.3326C147.789 44.1408 147.418 44.0449 146.922 44.0449C146.442 44.0449 145.95 44.0949 145.45 44.195L143.032 54.3346H139.317L142.335 41.831Z" fill="white"/>
</svg>
