<svg width="28" height="22" viewBox="0 0 28 22" fill="none" xmlns="http://www.w3.org/2000/svg">
<path d="M18.1525 17.6345H9.84727V19.2278H18.1525V17.6345Z" fill="#1EC1B3"/>
<path d="M27.0526 4.50507H19.3682V0.896288C19.3682 0.401231 18.9602 0 18.4566 0H9.54342C9.03992 0 8.63186 0.401231 8.63186 0.896288V4.50472H0.947406C0.424153 4.50477 0 4.92182 0 5.43631V16.6883H28V5.4366C28 4.92216 27.5758 4.50507 27.0526 4.50507ZM11.6704 2.98763H16.3293V4.50477H11.6704V2.98763Z" fill="#1EC1B3"/>
<path d="M19.0643 17.6345V19.2278C19.0643 19.7229 18.6562 20.124 18.1528 20.124H9.84727C9.34378 20.124 8.93571 19.7228 8.93571 19.2278V17.6345C8.93571 17.6174 8.93993 17.6016 8.94087 17.5846H0V21.0685C0 21.583 0.424153 22 0.947406 22H27.0526C27.5758 22 28 21.583 28 21.0685V17.5846H19.0592C19.0601 17.6013 19.0643 17.6174 19.0643 17.6345Z" fill="#1EC1B3"/>
</svg>
