<svg width="34" height="34" viewBox="0 0 34 34" fill="none" xmlns="http://www.w3.org/2000/svg">
<g clip-path="url(#clip0_1370_2337)">
<path d="M24.5148 11.6058C25.0336 12.1246 25.0336 12.9656 24.5148 13.4841L15.6049 22.3942C15.0862 22.9128 14.2454 22.9128 13.7266 22.3942L9.4852 18.1525C8.9664 17.634 8.9664 16.793 9.4852 16.2745C10.0037 15.7557 10.8447 15.7557 11.3633 16.2745L14.6657 19.5769L22.6365 11.6058C23.1553 11.0872 23.9963 11.0872 24.5148 11.6058ZM34 17C34 26.3967 26.3954 34 17 34C7.60326 34 0 26.3954 0 17C0 7.60326 7.60455 0 17 0C26.3967 0 34 7.60455 34 17ZM31.3438 17C31.3438 9.07146 24.9275 2.65625 17 2.65625C9.07146 2.65625 2.65625 9.07249 2.65625 17C2.65625 24.9285 9.07249 31.3438 17 31.3438C24.9285 31.3438 31.3438 24.9275 31.3438 17Z" fill="#22DDCD"/>
</g>
<defs>
<clipPath id="clip0_1370_2337">
<rect width="34" height="34" fill="white"/>
</clipPath>
</defs>
</svg>
