<svg width="44" height="40" viewBox="0 0 44 40" fill="none" xmlns="http://www.w3.org/2000/svg">
<rect width="44" height="40" rx="4" fill="#22DDCD" fill-opacity="0.2"/>
<path d="M29.9302 9.62012H17.2747C15.9274 9.62012 14.8313 10.7195 14.8313 12.0708V12.8296H14.0644C12.7171 12.8296 11.6211 13.9289 11.6211 15.281V27.9293C11.6211 29.2806 12.7171 30.38 14.0644 30.38H26.7203C28.072 30.38 29.1714 29.2806 29.1714 27.9293V27.1705H29.9302C31.2818 27.1705 32.3816 26.0711 32.3816 24.719V12.0707C32.3815 10.7195 31.2818 9.62012 29.9302 9.62012ZM27.6714 27.9292C27.6714 28.4536 27.2448 28.8799 26.7203 28.8799H14.0644C13.5444 28.8799 13.1211 28.4536 13.1211 27.9292V15.281C13.1211 14.7566 13.5445 14.3295 14.0644 14.3295H15.5813H26.7203C27.2447 14.3295 27.6714 14.7565 27.6714 15.281V26.4203V27.9292ZM30.8815 24.719C30.8815 25.2434 30.4549 25.6704 29.9301 25.6704H29.1713V15.281C29.1713 13.9289 28.072 12.8295 26.7202 12.8295H16.3312V12.0707C16.3312 11.5463 16.7546 11.12 17.2746 11.12H29.9301C30.4549 11.12 30.8815 11.5463 30.8815 12.0707V24.719Z" fill="#22DDCD"/>
</svg>
