<svg width="28" height="28" viewBox="0 0 28 28" fill="none" xmlns="http://www.w3.org/2000/svg">
<g clip-path="url(#clip0_1370_2516)">
<path d="M23.7032 5.09827C21.9186 4.27943 20.0049 3.67612 18.0039 3.33055C17.9675 3.32388 17.9311 3.34056 17.9123 3.37386C17.6662 3.81164 17.3936 4.38268 17.2027 4.83156C15.0505 4.50934 12.9094 4.50934 10.8014 4.83156C10.6105 4.37273 10.3279 3.81164 10.0807 3.37386C10.0619 3.34165 10.0255 3.32497 9.98909 3.33055C7.98928 3.67497 6.07555 4.27829 4.28978 5.09827C4.27431 5.10494 4.26107 5.11604 4.25227 5.13048C0.62233 10.5536 -0.372107 15.8434 0.115705 21.0676C0.117893 21.0931 0.132276 21.1176 0.152127 21.1331C2.54706 22.8919 4.86701 23.9596 7.14381 24.6674C7.18024 24.6785 7.21885 24.6652 7.24203 24.6352C7.7806 23.8997 8.2607 23.1241 8.67233 22.3086C8.69661 22.2608 8.67342 22.2042 8.62377 22.1853C7.86224 21.8964 7.13714 21.5442 6.4396 21.1442C6.38442 21.112 6.37999 21.0331 6.4308 20.9953C6.57758 20.8853 6.72442 20.7709 6.86458 20.6553C6.88996 20.6342 6.92528 20.6298 6.95509 20.6431C11.5375 22.7353 16.4984 22.7353 21.0267 20.6431C21.0565 20.6286 21.0919 20.6331 21.1183 20.6542C21.2585 20.7697 21.4053 20.8853 21.5532 20.9953C21.604 21.0331 21.6006 21.112 21.5455 21.1442C20.848 21.5519 20.1229 21.8964 19.3602 22.1841C19.3106 22.203 19.2885 22.2608 19.3128 22.3085C19.7333 23.1229 20.2134 23.8985 20.742 24.634C20.7641 24.6651 20.8038 24.6785 20.8402 24.6673C23.1281 23.9596 25.448 22.8918 27.843 21.133C27.864 21.1175 27.8772 21.0941 27.8794 21.0686C28.4632 15.0289 26.9015 9.78242 23.7396 5.13152C23.7319 5.11604 23.7187 5.10494 23.7032 5.09827ZM9.35674 17.8866C7.97714 17.8866 6.84035 16.62 6.84035 15.0645C6.84035 13.5089 7.95505 12.2424 9.35674 12.2424C10.7694 12.2424 11.8952 13.5201 11.8731 15.0645C11.8731 16.62 10.7583 17.8866 9.35674 17.8866ZM18.6606 17.8866C17.281 17.8866 16.1442 16.62 16.1442 15.0645C16.1442 13.5089 17.2589 12.2424 18.6606 12.2424C20.0733 12.2424 21.199 13.5201 21.177 15.0645C21.177 16.62 20.0733 17.8866 18.6606 17.8866Z" fill="#22DDCD"/>
</g>
<defs>
<clipPath id="clip0_1370_2516">
<rect width="28" height="28" fill="white"/>
</clipPath>
</defs>
</svg>
