<svg width="210" height="90" viewBox="0 0 210 90" fill="none" xmlns="http://www.w3.org/2000/svg">
<rect width="210" height="90" fill="#0F322F"/>
<path d="M77.0819 41.1338H75.5352V44.1815H77.97V45.4574H75.5352V48.5051H77.157C77.5739 48.5051 80.58 48.551 80.5758 44.9571C80.5716 41.3673 77.6615 41.1338 77.0819 41.1338Z" fill="white"/>
<path d="M76.8234 34C70.8447 34 66 38.8447 66 44.8234C66 50.8021 70.8447 55.6468 76.8234 55.6468C82.8021 55.6468 87.6468 50.8021 87.6468 44.8234C87.6468 38.8447 82.8021 34 76.8234 34ZM77.2487 50.6687H73.3296V45.4571H71.9495V44.1813H73.3296V38.9697H76.6942C77.4905 38.9697 82.7604 38.803 82.7604 44.9151C82.7604 51.1315 77.2487 50.6687 77.2487 50.6687Z" fill="white"/>
<path d="M91.7118 49.973C91.4491 49.973 91.3157 49.827 91.3157 49.531V40.1168C91.3157 39.8208 91.4491 39.6748 91.7118 39.6748H94.1841C94.9096 39.6748 95.5516 39.8375 96.102 40.1669C96.6565 40.4962 97.0901 41.034 97.4028 41.7845C97.7155 42.5349 97.8739 43.5481 97.8739 44.8239C97.8739 46.0997 97.7155 47.1128 97.4028 47.8633C97.0901 48.6138 96.6565 49.1515 96.102 49.4809C95.5475 49.8103 94.9096 49.973 94.1841 49.973H91.7118ZM92.654 48.8555H94.1549C94.6177 48.8555 95.0263 48.7221 95.3849 48.4595C95.7434 48.1926 96.0228 47.7673 96.2229 47.1795C96.423 46.5916 96.5231 45.8078 96.5231 44.8239C96.5231 43.8441 96.423 43.0603 96.2229 42.4683C96.0228 41.8804 95.7434 41.4551 95.3849 41.1883C95.0263 40.9215 94.6177 40.7922 94.1549 40.7922H92.654V48.8555Z" fill="white"/>
<path d="M103.794 50.0601C102.606 50.0601 101.697 49.6307 101.063 48.7676C100.43 47.9046 100.113 46.5788 100.113 44.7943C100.113 43.0099 100.43 41.6966 101.063 40.8502C101.697 40.008 102.606 39.5869 103.794 39.5869C104.982 39.5869 105.891 40.008 106.529 40.8502C107.167 41.6924 107.484 43.0099 107.484 44.7943C107.484 46.5788 107.167 47.9046 106.529 48.7676C105.891 49.6307 104.978 50.0601 103.794 50.0601ZM103.807 48.9427C104.307 48.9427 104.732 48.7927 105.078 48.4925C105.424 48.1923 105.687 47.7378 105.866 47.125C106.041 46.5121 106.129 45.7366 106.129 44.7943C106.129 43.8521 106.041 43.0807 105.866 42.4762C105.691 41.8716 105.429 41.4255 105.078 41.1379C104.728 40.8502 104.307 40.7042 103.807 40.7042C103.306 40.7042 102.881 40.8502 102.535 41.1379C102.185 41.4255 101.926 41.8716 101.747 42.4762C101.572 43.0807 101.48 43.8521 101.48 44.7943C101.48 45.7366 101.568 46.5121 101.747 47.125C101.922 47.7378 102.185 48.1923 102.535 48.4925C102.881 48.7927 103.306 48.9427 103.807 48.9427Z" fill="white"/>
<path d="M113.384 50.0604C112.166 50.0604 111.245 49.6393 110.611 48.7971C109.977 47.9549 109.66 46.6583 109.66 44.9113C109.66 43.0769 109.99 41.7302 110.644 40.8713C111.303 40.0125 112.258 39.583 113.513 39.583C113.884 39.583 114.255 39.6331 114.618 39.729C114.98 39.829 115.281 39.9457 115.514 40.0833C115.748 40.2209 115.868 40.3585 115.868 40.4961C115.868 40.5753 115.839 40.6837 115.781 40.8213C115.722 40.9589 115.652 41.0798 115.568 41.1882C115.485 41.2966 115.41 41.3508 115.339 41.3508C115.289 41.3508 115.193 41.3008 115.051 41.2049C114.909 41.109 114.714 41.0048 114.463 40.9047C114.213 40.8005 113.901 40.7504 113.529 40.7504C112.608 40.7504 111.962 41.1048 111.587 41.8178C111.216 42.5307 111.028 43.5188 111.028 44.7821C111.028 45.5367 111.103 46.2288 111.249 46.8583C111.395 47.4879 111.645 47.9924 111.991 48.3718C112.337 48.7554 112.817 48.9471 113.425 48.9471C113.767 48.9471 114.071 48.9222 114.338 48.868C114.605 48.8138 114.814 48.7429 114.972 48.6553L114.739 49.2598V45.4784H113.488C113.292 45.4784 113.192 45.3324 113.192 45.0364V44.8029C113.192 44.5069 113.288 44.361 113.488 44.361H115.664C115.931 44.361 116.06 44.5069 116.06 44.8029V49.0097C116.06 49.214 115.977 49.3891 115.81 49.5226C115.643 49.6601 115.426 49.7686 115.155 49.8478C114.884 49.927 114.597 49.9812 114.288 50.0187C113.98 50.0437 113.68 50.0604 113.384 50.0604Z" fill="white"/>
<path d="M119.341 49.973C119.079 49.973 118.945 49.827 118.945 49.531V40.1168C118.945 39.8208 119.079 39.6748 119.341 39.6748H123.577C123.765 39.6748 123.857 39.8208 123.857 40.1168V40.3503C123.857 40.6463 123.765 40.7922 123.577 40.7922H120.267V44.1484H123.24C123.427 44.1484 123.519 44.2944 123.519 44.5904V44.8239C123.519 45.1199 123.427 45.2658 123.24 45.2658H120.267V48.8555H123.577C123.765 48.8555 123.857 49.0015 123.857 49.2975V49.531C123.857 49.827 123.765 49.973 123.577 49.973H119.341Z" fill="white"/>
<path d="M129.802 50.0601C128.497 50.0601 127.534 49.6349 126.913 48.7885C126.292 47.9421 125.979 46.6163 125.979 44.8235C125.979 43.0391 126.296 41.7174 126.934 40.8669C127.572 40.0122 128.531 39.5869 129.819 39.5869C130.094 39.5869 130.365 39.6161 130.628 39.6661C130.895 39.7203 131.12 39.787 131.303 39.8662C131.403 39.9037 131.466 39.9538 131.503 40.0122C131.537 40.0706 131.553 40.154 131.553 40.2624C131.553 40.3208 131.537 40.425 131.507 40.5793C131.478 40.7335 131.428 40.8627 131.362 40.9753C131.295 41.0879 131.203 41.1087 131.095 41.042C130.949 40.9753 130.769 40.9044 130.557 40.8377C130.344 40.771 130.098 40.7335 129.815 40.7335C128.973 40.7335 128.347 41.0587 127.947 41.7133C127.547 42.3637 127.342 43.3976 127.342 44.811C127.342 46.2119 127.542 47.25 127.947 47.9171C128.347 48.5842 128.968 48.9178 129.802 48.9178C130.107 48.9178 130.369 48.8802 130.599 48.8094C130.824 48.7343 131.02 48.6509 131.186 48.5508C131.316 48.4925 131.416 48.505 131.495 48.5967C131.574 48.6843 131.633 48.7968 131.67 48.9344C131.708 49.0719 131.728 49.1845 131.728 49.2721C131.728 49.3596 131.708 49.4473 131.662 49.5306C131.616 49.614 131.52 49.6891 131.374 49.76C131.228 49.8267 131.015 49.8975 130.732 49.9643C130.457 50.0268 130.144 50.0601 129.802 50.0601Z" fill="white"/>
<path d="M136.79 50.0601C135.602 50.0601 134.693 49.6307 134.059 48.7676C133.425 47.9046 133.108 46.5788 133.108 44.7943C133.108 43.0099 133.425 41.6966 134.059 40.8502C134.693 40.008 135.602 39.5869 136.79 39.5869C137.978 39.5869 138.887 40.008 139.525 40.8502C140.163 41.6924 140.48 43.0099 140.48 44.7943C140.48 46.5788 140.163 47.9046 139.525 48.7676C138.891 49.6307 137.978 50.0601 136.79 50.0601ZM136.807 48.9427C137.307 48.9427 137.732 48.7927 138.078 48.4925C138.424 48.1923 138.687 47.7378 138.866 47.125C139.041 46.5121 139.129 45.7366 139.129 44.7943C139.129 43.8521 139.041 43.0807 138.866 42.4762C138.691 41.8716 138.428 41.4255 138.078 41.1379C137.728 40.8502 137.307 40.7042 136.807 40.7042C136.306 40.7042 135.881 40.8502 135.535 41.1379C135.185 41.4255 134.926 41.8716 134.747 42.4762C134.572 43.0807 134.48 43.8521 134.48 44.7943C134.48 45.7366 134.568 46.5121 134.747 47.125C134.922 47.7378 135.185 48.1923 135.535 48.4925C135.881 48.7927 136.306 48.9427 136.807 48.9427Z" fill="white"/>
<path d="M143.765 50.0016C143.569 50.0016 143.427 49.9724 143.34 49.9141C143.252 49.8557 143.206 49.7765 143.206 49.6806V39.9704C143.206 39.8745 143.252 39.7953 143.34 39.737C143.427 39.6786 143.569 39.6494 143.765 39.6494H143.986C144.349 39.6494 144.532 39.7577 144.532 39.9745V49.6847C144.532 49.9015 144.349 50.01 143.986 50.01H143.765V50.0016Z" fill="white"/>
<path d="M148.163 50.0016C147.967 50.0016 147.826 49.9724 147.738 49.9141C147.651 49.8557 147.605 49.7765 147.605 49.6806V39.9704C147.605 39.8745 147.651 39.7953 147.738 39.737C147.826 39.6786 147.967 39.6494 148.163 39.6494H148.518C148.655 39.6494 148.772 39.6702 148.864 39.7161C148.956 39.7619 149.035 39.837 149.093 39.9454L152.508 46.5203C152.587 46.6788 152.658 46.833 152.72 46.9831C152.783 47.1332 152.841 47.2916 152.891 47.4459L152.966 47.4167C152.929 47.2583 152.9 47.0999 152.879 46.9331C152.858 46.7663 152.85 46.6037 152.85 46.4494V39.9745C152.85 39.8786 152.896 39.7995 152.983 39.7411C153.071 39.6828 153.212 39.6536 153.408 39.6536H153.583C153.955 39.6536 154.142 39.7619 154.142 39.9787V49.6889C154.142 49.9057 153.955 50.0141 153.583 50.0141H153.275C153.137 50.0141 153.025 49.9933 152.937 49.9558C152.85 49.9183 152.783 49.864 152.745 49.7932L149.243 42.9972C149.164 42.8388 149.093 42.6846 149.031 42.5345C148.968 42.3844 148.91 42.2301 148.86 42.0717L148.785 42.1009C148.822 42.2593 148.851 42.4177 148.872 42.5845C148.893 42.7513 148.901 42.9139 148.901 43.0682V49.6889C148.901 49.789 148.856 49.8641 148.768 49.9224C148.68 49.9808 148.539 50.01 148.343 50.01H148.163V50.0016Z" fill="white"/>
</svg>
