<svg width="210" height="90" viewBox="0 0 210 90" fill="none" xmlns="http://www.w3.org/2000/svg">
<rect width="210" height="90" fill="#0F322F"/>
<path d="M48.0586 51.2149V56.9643L55.1172 47.0498L48.0586 51.2149Z" fill="white"/>
<path d="M48.0586 42.5049V49.8846L55.1172 45.7111L48.0586 42.5049Z" fill="white"/>
<path d="M48.0586 34V42.5052L55.1172 45.7115L48.0586 34Z" fill="white"/>
<path d="M48.0585 51.2149V56.9643L41 47.0498L48.0585 51.2149Z" fill="white"/>
<path d="M48.0585 42.5049V49.8846L41 45.7111L48.0585 42.5049Z" fill="white"/>
<path d="M48.0585 34V42.5052L41 45.7115L48.0585 34Z" fill="white"/>
<path d="M61.3668 47.3413C61.4586 48.8422 62.6885 50.7142 64.7648 50.7142C66.1823 50.7184 67.0412 50.0596 67.6457 49.2174C67.7541 49.0673 67.9835 49.0423 68.1461 49.1341C68.2294 49.1841 68.292 49.2675 68.3128 49.3592C68.3337 49.4551 68.317 49.5551 68.2628 49.6344C67.7124 50.4557 66.5367 51.5064 64.7148 51.4188C63.3723 51.4188 62.3925 50.7142 61.6795 49.9429C61.1 49.3175 60.6581 48.2626 60.6581 46.9868C60.6581 45.7319 61.0375 44.7188 61.7963 43.9475C62.5551 43.172 63.4598 42.6133 64.7148 42.6133C65.9697 42.6133 66.8827 43.0844 67.604 43.8599C68.5338 44.8563 68.7839 45.8862 68.8215 46.9702C68.8256 47.0661 68.7881 47.162 68.7214 47.2287C68.6547 47.2996 68.563 47.3371 68.4629 47.3371C66.8452 47.3413 61.3668 47.3413 61.3668 47.3413ZM64.7106 43.3054C63.785 43.3138 63.0929 43.7224 62.4967 44.2435C61.9005 44.7647 61.4961 45.757 61.396 46.6701H68.0126C67.9584 45.7528 67.5207 44.9023 66.987 44.3311C66.4617 43.7682 65.9113 43.2971 64.7106 43.3054Z" fill="white"/>
<path d="M94.1122 47.3413C94.2039 48.8422 95.4339 50.7142 97.5102 50.7142C98.9277 50.7184 99.7866 50.0596 100.391 49.2174C100.5 49.0673 100.729 49.0423 100.891 49.1341C100.975 49.1841 101.037 49.2675 101.058 49.3592C101.079 49.4551 101.062 49.5551 101.008 49.6344C100.458 50.4557 99.2821 51.5064 97.4601 51.4188C96.1176 51.4188 95.1379 50.7142 94.4249 49.9429C93.8454 49.3175 93.4034 48.2626 93.4034 46.9868C93.4034 45.7319 93.7829 44.7188 94.5417 43.9475C95.3005 43.172 96.2052 42.6133 97.4601 42.6133C98.7151 42.6133 99.6282 43.0844 100.349 43.8599C101.279 44.8563 101.529 45.8862 101.567 46.9702C101.571 47.0661 101.534 47.162 101.467 47.2287C101.4 47.2996 101.308 47.3371 101.208 47.3371C99.5865 47.3413 94.1122 47.3413 94.1122 47.3413ZM97.456 43.3054C96.5304 43.3138 95.8383 43.7224 95.2421 44.2435C94.6459 44.7647 94.2415 45.757 94.1414 46.6701H100.758C100.704 45.7528 100.266 44.9023 99.7324 44.3311C99.2029 43.7682 98.6567 43.2971 97.456 43.3054Z" fill="white"/>
<path d="M114.375 47.3413C114.467 48.8422 115.696 50.7142 117.773 50.7142C119.19 50.7184 120.049 50.0596 120.654 49.2174C120.762 49.0673 120.991 49.0423 121.154 49.1341C121.237 49.1841 121.3 49.2675 121.321 49.3592C121.342 49.4551 121.325 49.5551 121.271 49.6344C120.72 50.4557 119.545 51.5064 117.723 51.4188C116.38 51.4188 115.4 50.7142 114.687 49.9429C114.108 49.3175 113.666 48.2626 113.666 46.9868C113.666 45.7319 114.045 44.7188 114.804 43.9475C115.563 43.172 116.468 42.6133 117.723 42.6133C118.978 42.6133 119.891 43.0844 120.612 43.8599C121.542 44.8563 121.792 45.8862 121.829 46.9702C121.834 47.0661 121.796 47.162 121.729 47.2287C121.663 47.2996 121.571 47.3371 121.471 47.3371C119.853 47.3413 114.375 47.3413 114.375 47.3413ZM117.719 43.3054C116.793 43.3138 116.101 43.7224 115.509 44.2435C114.913 44.7647 114.508 45.757 114.408 46.6701H121.025C120.971 45.7528 120.533 44.9023 119.999 44.3311C119.47 43.7682 118.919 43.2971 117.719 43.3054Z" fill="white"/>
<path d="M75.4548 43.456V50.9815C75.4548 51.165 75.3047 51.3109 75.1254 51.3109C74.9419 51.3109 74.796 51.1608 74.796 50.9815V43.456H72.9073C72.7322 43.456 72.5863 43.3101 72.5863 43.135C72.5863 42.9598 72.7322 42.814 72.9073 42.814H74.796V40.0289C74.796 39.8454 74.9461 39.6953 75.1296 39.6953H75.1379C75.313 39.6953 75.4589 39.8412 75.4589 40.0164V42.8181H77.4101C77.5852 42.8181 77.7312 42.964 77.7312 43.1391C77.7312 43.3142 77.5852 43.4602 77.4101 43.4602H75.4548V43.456Z" fill="white"/>
<path d="M86.1072 42.7179C84.7939 42.5386 83.5473 42.9722 82.6926 44.3898V36.0388C82.6926 35.8637 82.5467 35.7178 82.3715 35.7178H82.3632C82.1798 35.7178 82.0297 35.8678 82.0297 36.0512V50.973C82.0297 51.1565 82.1797 51.3024 82.359 51.3024C82.5425 51.3024 82.6884 51.1523 82.6884 50.973V45.9283C82.6884 44.5149 84.477 42.9931 86.103 43.3558C87.1495 43.5893 88.196 44.6274 88.1918 46.2868V50.9689C88.1918 51.1523 88.3419 51.2982 88.5212 51.2982C88.7047 51.2982 88.8506 51.1481 88.8506 50.9689V46.3035C88.9506 44.8859 87.9667 42.9764 86.1072 42.7179Z" fill="white"/>
<path d="M129.096 51.4527C130.41 51.632 131.656 51.1984 132.511 49.7808V50.9815C132.511 51.1566 132.657 51.3026 132.832 51.3026H132.84C133.024 51.3026 133.174 51.1525 133.174 50.969V43.1976C133.174 43.0141 133.024 42.8682 132.845 42.8682C132.661 42.8682 132.515 43.0183 132.515 43.1976L132.557 47.3167C132.557 49.4556 130.889 51.165 129.142 50.7939C128.092 50.573 127.012 49.539 127.016 47.8796V43.1976C127.016 43.0141 126.866 42.8682 126.687 42.8682C126.503 42.8682 126.357 43.0183 126.357 43.1976V47.8629C126.349 49.6057 127.233 51.1942 129.096 51.4527Z" fill="white"/>
<path d="M148.25 42.7181C146.962 42.5388 145.336 43.0975 144.656 44.9195C144.26 43.8646 143.368 42.8932 142.08 42.7181C140.766 42.5388 139.511 42.9349 138.652 44.3525V43.1517C138.652 42.9766 138.506 42.8307 138.331 42.8307H138.323C138.14 42.8307 137.99 42.9808 137.99 43.1642V50.9358C137.99 51.1192 138.14 51.2651 138.319 51.2651C138.502 51.2651 138.648 51.1151 138.648 50.9358L138.607 46.8165C138.607 44.6777 140.287 43.0058 142.034 43.3769C143.043 43.5895 144.081 44.5526 144.156 46.1077V50.9399C144.156 50.9525 144.16 50.9649 144.16 50.9732V50.9774C144.16 51.1609 144.36 51.3068 144.544 51.3068C144.727 51.3068 144.873 51.1567 144.873 50.9774V49.8517C144.877 49.1096 144.877 48.134 144.877 47.3836C144.877 45.0738 145.919 43.0308 148.2 43.381C149.259 43.5436 150.331 44.636 150.326 46.2953V50.9774C150.326 51.1609 150.476 51.3068 150.656 51.3068C150.839 51.3068 150.985 51.1567 150.985 50.9774V46.312C151.089 44.8861 150.11 42.9766 148.25 42.7181Z" fill="white"/>
<path d="M110.226 43.185C110.226 43.085 110.181 42.989 110.105 42.9265C110.026 42.8639 109.926 42.8556 109.826 42.8598C108.463 42.8932 107.179 44.0064 106.849 44.8527V43.1267C106.849 42.9516 106.703 42.8057 106.528 42.8057H106.52C106.336 42.8057 106.186 42.9557 106.186 43.1391V50.9107C106.186 51.0941 106.336 51.2401 106.516 51.2401C106.699 51.2401 106.845 51.09 106.845 50.9107L106.866 47.0207C106.866 45.1529 108.304 43.5728 109.968 43.4936C110.122 43.4894 110.226 43.3351 110.226 43.185Z" fill="white"/>
</svg>
