<svg width="32" height="32" viewBox="0 0 32 32" fill="none" xmlns="http://www.w3.org/2000/svg">
<g clip-path="url(#clip0_1370_2304)">
<path d="M31.6597 13.004L16.4912 1.8979C16.1987 1.68377 15.8013 1.68377 15.5089 1.8979L0.340288 13.004C-0.0302124 13.2753 -0.110712 13.7955 0.1606 14.166C0.431913 14.5365 0.952225 14.6169 1.32266 14.3457L16 3.59921L30.6773 14.3456C30.8253 14.4541 30.9973 14.5063 31.1678 14.5063C31.4238 14.5063 31.6764 14.3885 31.8393 14.166C32.1107 13.7955 32.0302 13.2753 31.6597 13.004Z" fill="#22DDCD"/>
<path d="M27.6403 14.5342C27.1812 14.5342 26.8089 14.9064 26.8089 15.3656V28.5999H20.1575V21.3758C20.1575 19.0833 18.2924 17.2183 16 17.2183C13.7076 17.2183 11.8425 19.0834 11.8425 21.3758V28.6H5.19107V15.3657C5.19107 14.9065 4.81876 14.5342 4.35964 14.5342C3.90051 14.5342 3.5282 14.9065 3.5282 15.3657V29.4315C3.5282 29.8907 3.90051 30.2629 4.35964 30.2629H12.6739C13.1112 30.2629 13.469 29.9251 13.5021 29.4962C13.5041 29.4768 13.5054 29.4556 13.5054 29.4315V21.3759C13.5054 20.0003 14.6244 18.8812 16 18.8812C17.3756 18.8812 18.4946 20.0004 18.4946 21.3759V29.4315C18.4946 29.4554 18.4959 29.4763 18.4979 29.4955C18.5306 29.9247 18.8886 30.2629 19.3261 30.2629H27.6404C28.0996 30.2629 28.4718 29.8907 28.4718 29.4315V15.3657C28.4718 14.9064 28.0995 14.5342 27.6403 14.5342Z" fill="#22DDCD"/>
</g>
<defs>
<clipPath id="clip0_1370_2304">
<rect width="32" height="32" fill="white"/>
</clipPath>
</defs>
</svg>
