<svg width="33" height="33" viewBox="0 0 33 33" fill="none" xmlns="http://www.w3.org/2000/svg">
<circle cx="16.5" cy="16.0127" r="16.0127" fill="#22DDCD"/>
<path d="M23.4873 23.0025V17.8842C23.4873 15.3688 22.9457 13.4473 20.0111 13.4473C18.5961 13.4473 17.6528 14.2159 17.2685 14.9495H17.2336V13.6744H14.4561V23.0025H17.3559V18.3733C17.3559 17.1506 17.583 15.9802 19.0852 15.9802C20.57 15.9802 20.5875 17.3602 20.5875 18.4432V22.985H23.4873V23.0025Z" fill="#333333"/>
<path d="M9.73969 13.6738H12.6394V23.0019H9.73969V13.6738Z" fill="#333333"/>
<path d="M11.1895 9.02734C10.2637 9.02734 9.51257 9.77848 9.51257 10.7043C9.51257 11.6301 10.2637 12.3987 11.1895 12.3987C12.1154 12.3987 12.8665 11.6301 12.8665 10.7043C12.8665 9.77848 12.1154 9.02734 11.1895 9.02734Z" fill="#333333"/>
</svg>
