<svg width="36" height="36" viewBox="0 0 36 36" fill="none" xmlns="http://www.w3.org/2000/svg">
<rect width="36" height="36" rx="4" fill="#22DDCD" fill-opacity="0.2"/>
<g clip-path="url(#clip0_1495_377)">
<path d="M16.4621 24.7199L14.3411 26.8409C13.4617 27.7203 12.0377 27.7202 11.1591 26.8411C10.2803 25.9623 10.2803 24.5382 11.1589 23.6596L15.4017 19.4168C16.2803 18.5382 17.7045 18.5382 18.5831 19.4168C18.876 19.7097 19.3509 19.7097 19.6437 19.4168C19.9366 19.1239 19.9366 18.649 19.6437 18.3561C18.1793 16.8917 15.8055 16.8917 14.3411 18.3561L10.0983 22.5989C8.6339 24.0633 8.6339 26.4371 10.0983 27.9016C11.5625 29.3667 13.9366 29.3667 15.4018 27.9016L17.5228 25.7805C17.8157 25.4876 17.8157 25.0127 17.5228 24.7199C17.2299 24.427 16.755 24.427 16.4621 24.7199Z" fill="#22DDCD"/>
<path d="M25.8998 12.0983C24.4354 10.6339 22.0608 10.6339 20.5964 12.0983L18.0516 14.6431C17.7587 14.936 17.7587 15.4109 18.0516 15.7037C18.3445 15.9966 18.8194 15.9966 19.1123 15.7037L21.657 13.159C22.5356 12.2803 23.9605 12.2803 24.8391 13.159C25.7177 14.0376 25.7177 15.4617 24.8391 16.3403L20.1726 21.0069C19.294 21.8855 17.8699 21.8855 16.9913 21.0069C16.6984 20.714 16.2235 20.714 15.9306 21.0069C15.6377 21.2998 15.6377 21.7747 15.9306 22.0676C17.395 23.532 19.7689 23.532 21.2333 22.0676L25.8998 17.401C27.3642 15.9366 27.3642 13.5627 25.8998 12.0983Z" fill="#22DDCD"/>
</g>
<defs>
<clipPath id="clip0_1495_377">
<rect width="18" height="18" fill="white" transform="translate(9 11)"/>
</clipPath>
</defs>
</svg>
