<svg width="210" height="90" viewBox="0 0 210 90" fill="none" xmlns="http://www.w3.org/2000/svg">
<rect width="210" height="90" fill="#0F322F"/>
<path fill-rule="evenodd" clip-rule="evenodd" d="M77.8234 34C71.8447 34 67 38.8447 67 44.8234C67 50.8021 71.8447 55.6468 77.8234 55.6468C83.8021 55.6468 88.6468 50.8021 88.6468 44.8234C88.6468 38.8447 83.798 34 77.8234 34ZM74.6047 44.8192L76.1474 39.0198H79.4953L78.3154 43.4642L79.9539 42.8638L79.9664 42.9013L79.5536 44.4564L77.8901 45.0652L77.1855 47.7126H82.7473L82.1761 49.839H73.2664L74.1753 46.4202L72.887 46.8913L73.3123 45.2861L74.6047 44.8192Z" fill="white"/>
<path d="M93.7709 50.8558L95.301 38.2646H96.7977L95.2676 50.8558H93.7709Z" fill="white"/>
<path d="M100.429 42.1964L99.3869 50.856H97.8901L98.9325 42.1964H100.429ZM101 39.478C101 39.6281 100.971 39.7657 100.913 39.8908C100.854 40.02 100.775 40.1326 100.675 40.2327C100.575 40.3328 100.463 40.412 100.337 40.4662C100.212 40.5246 100.083 40.5496 99.9456 40.5496C99.8163 40.5496 99.6871 40.5204 99.562 40.4662C99.4369 40.4078 99.3285 40.3328 99.2326 40.2327C99.1367 40.1326 99.0617 40.02 99.0075 39.8908C98.9491 39.7615 98.9199 39.624 98.9199 39.478C98.9199 39.3321 98.9491 39.1904 99.0075 39.0611C99.0659 38.9319 99.1409 38.8152 99.2368 38.7151C99.3327 38.6151 99.4453 38.5358 99.5703 38.4775C99.6954 38.4191 99.8247 38.3857 99.9539 38.3857C100.091 38.3857 100.221 38.4149 100.346 38.4691C100.471 38.5275 100.583 38.6025 100.684 38.7026C100.784 38.8027 100.863 38.9193 100.917 39.0528C100.971 39.1903 101 39.3321 101 39.478Z" fill="white"/>
<path d="M102.597 49.2218C102.597 49.1884 102.597 49.1425 102.601 49.0883C102.606 49.0341 102.61 48.9549 102.618 48.8548C102.626 48.7548 102.639 48.6172 102.656 48.4546C102.672 48.2878 102.697 48.071 102.731 47.8042L103.268 43.4723H102.301C102.226 43.4723 102.168 43.4514 102.118 43.4097C102.068 43.3681 102.047 43.3014 102.047 43.2096C102.047 43.193 102.051 43.1596 102.055 43.1054C102.059 43.0554 102.068 42.997 102.076 42.9303C102.084 42.8636 102.093 42.7969 102.101 42.7302C102.109 42.6635 102.118 42.5968 102.122 42.5343L103.456 42.355L104.098 39.6783C104.119 39.5907 104.165 39.524 104.227 39.4698C104.29 39.4156 104.365 39.3906 104.457 39.3906H105.261L104.886 42.3716H107.158L107.029 43.4723H104.749L104.227 47.7291C104.198 47.9626 104.177 48.1503 104.165 48.292C104.152 48.4338 104.14 48.5463 104.132 48.6338C104.123 48.7214 104.119 48.7798 104.115 48.8132C104.111 48.8465 104.111 48.8715 104.111 48.8882C104.111 49.1801 104.177 49.3927 104.311 49.5345C104.444 49.6721 104.628 49.7429 104.861 49.7429C105.011 49.7429 105.14 49.722 105.253 49.6803C105.366 49.6386 105.466 49.5928 105.549 49.5386C105.632 49.4886 105.703 49.4385 105.758 49.3968C105.812 49.3552 105.866 49.3343 105.912 49.3343C105.958 49.3343 105.991 49.3468 106.02 49.3676C106.045 49.3885 106.074 49.426 106.099 49.4802L106.416 50.2057C106.141 50.4516 105.828 50.6435 105.47 50.7811C105.115 50.9187 104.757 50.9895 104.398 50.9895C103.844 50.9895 103.41 50.8394 103.089 50.535C102.776 50.2349 102.61 49.7971 102.597 49.2218Z" fill="white"/>
<path d="M114.626 44.052C114.626 44.4273 114.55 44.7733 114.396 45.0902C114.242 45.407 113.958 45.6906 113.55 45.9449C113.141 46.1992 112.574 46.4202 111.857 46.6078C111.14 46.7955 110.214 46.9455 109.089 47.0622C109.085 47.1248 109.08 47.1874 109.08 47.2458C109.08 47.3041 109.08 47.3666 109.08 47.4292C109.08 48.1922 109.247 48.7758 109.581 49.1761C109.914 49.5763 110.419 49.7806 111.09 49.7806C111.365 49.7806 111.607 49.7514 111.82 49.6972C112.032 49.6389 112.224 49.5722 112.391 49.4888C112.558 49.4054 112.708 49.3137 112.837 49.2136C112.966 49.1136 113.083 49.0218 113.191 48.9384C113.3 48.855 113.4 48.7841 113.491 48.7299C113.583 48.6716 113.675 48.6466 113.767 48.6466C113.871 48.6466 113.963 48.6966 114.05 48.7925L114.425 49.2636C114.134 49.5638 113.85 49.8223 113.575 50.0391C113.3 50.2518 113.016 50.4311 112.724 50.5728C112.432 50.7146 112.128 50.8188 111.815 50.8855C111.499 50.9522 111.157 50.9856 110.794 50.9856C110.298 50.9856 109.852 50.9021 109.46 50.7395C109.068 50.5728 108.734 50.3393 108.459 50.035C108.184 49.7306 107.976 49.3596 107.825 48.9302C107.675 48.4965 107.604 48.0128 107.604 47.475C107.604 47.0289 107.65 46.587 107.746 46.145C107.842 45.7031 107.976 45.282 108.155 44.8859C108.334 44.4898 108.555 44.1188 108.814 43.7769C109.072 43.435 109.368 43.139 109.702 42.893C110.035 42.647 110.402 42.4511 110.802 42.3093C111.203 42.1676 111.636 42.0967 112.099 42.0967C112.537 42.0967 112.916 42.1592 113.237 42.2843C113.554 42.4094 113.817 42.5678 114.025 42.7638C114.229 42.9556 114.384 43.1724 114.484 43.4059C114.575 43.6185 114.626 43.8394 114.626 44.052ZM112.007 43.1724C111.649 43.1724 111.319 43.2474 111.015 43.3934C110.715 43.5435 110.444 43.7436 110.21 44.0062C109.977 44.2647 109.777 44.5691 109.61 44.9193C109.443 45.2695 109.318 45.6489 109.226 46.0533C110.102 45.9449 110.806 45.8199 111.336 45.6823C111.865 45.5447 112.274 45.3904 112.558 45.2278C112.841 45.0652 113.029 44.8901 113.12 44.7025C113.212 44.5149 113.258 44.3189 113.258 44.1146C113.258 44.0104 113.237 43.9062 113.191 43.7936C113.145 43.681 113.075 43.581 112.974 43.4892C112.874 43.3975 112.745 43.3225 112.587 43.2641C112.428 43.2016 112.237 43.1724 112.007 43.1724Z" fill="white"/>
<path d="M121.134 50.1094C120.867 50.3262 120.604 50.4971 120.333 50.6264C120.066 50.7556 119.787 50.8432 119.499 50.8974C119.212 50.9474 118.903 50.9724 118.574 50.9724C118.073 50.9724 117.627 50.889 117.244 50.7181C116.86 50.5471 116.539 50.3053 116.277 49.9968C116.018 49.6883 115.822 49.3131 115.689 48.8753C115.555 48.4375 115.489 47.9581 115.489 47.4369C115.489 46.7365 115.597 46.0652 115.818 45.4189C116.039 44.7769 116.343 44.2058 116.735 43.7096C117.127 43.2135 117.594 42.8174 118.136 42.5213C118.678 42.2253 119.274 42.0752 119.92 42.0752C120.492 42.0752 120.967 42.1752 121.355 42.3795C121.742 42.5797 122.08 42.8757 122.372 43.2635L121.893 43.8346C121.859 43.8805 121.817 43.918 121.763 43.9472C121.713 43.9764 121.655 43.9889 121.592 43.9889C121.513 43.9889 121.434 43.9556 121.359 43.8805C121.284 43.8096 121.184 43.7304 121.059 43.6428C120.938 43.5553 120.783 43.4761 120.596 43.4053C120.412 43.3344 120.175 43.2969 119.883 43.2969C119.491 43.2969 119.12 43.4052 118.766 43.6178C118.415 43.8304 118.107 44.1223 117.848 44.4934C117.586 44.8645 117.381 45.3022 117.227 45.8108C117.077 46.3195 117.002 46.8616 117.002 47.4453C117.002 47.7996 117.044 48.1207 117.123 48.4084C117.202 48.6961 117.323 48.9419 117.481 49.1421C117.64 49.3464 117.836 49.5007 118.065 49.6132C118.294 49.7258 118.565 49.78 118.874 49.78C119.128 49.78 119.358 49.755 119.558 49.7008C119.758 49.6466 119.933 49.5799 120.087 49.5007C120.241 49.4215 120.375 49.3339 120.492 49.2381C120.608 49.1422 120.713 49.0587 120.808 48.9795C120.904 48.9003 120.988 48.8336 121.063 48.7794C121.138 48.7252 121.217 48.7002 121.296 48.7002C121.409 48.7002 121.509 48.7502 121.588 48.8461L121.963 49.3089C121.68 49.6216 121.396 49.8926 121.134 50.1094Z" fill="white"/>
<path d="M126.07 50.9725C125.599 50.9725 125.165 50.8933 124.769 50.7307C124.377 50.5681 124.036 50.3346 123.752 50.0261C123.469 49.7176 123.243 49.3424 123.085 48.8962C122.927 48.4501 122.847 47.9456 122.847 47.3744C122.847 46.6448 122.96 45.9569 123.189 45.3148C123.418 44.6727 123.727 44.1057 124.123 43.6221C124.519 43.1384 124.986 42.7549 125.524 42.4755C126.062 42.1962 126.645 42.0586 127.271 42.0586C127.742 42.0586 128.176 42.1378 128.572 42.3004C128.964 42.463 129.305 42.6965 129.589 43.005C129.872 43.3135 130.098 43.6888 130.256 44.1391C130.414 44.5852 130.494 45.0939 130.494 45.6567C130.494 46.3822 130.381 47.0659 130.152 47.708C129.923 48.35 129.614 48.9171 129.218 49.4007C128.822 49.8843 128.355 50.2679 127.813 50.5514C127.271 50.8308 126.687 50.9725 126.07 50.9725ZM126.204 49.7842C126.62 49.7842 127 49.6717 127.342 49.4424C127.684 49.2131 127.975 48.9129 128.213 48.5335C128.451 48.1541 128.638 47.7163 128.768 47.2202C128.897 46.724 128.964 46.2071 128.964 45.6651C128.964 44.8687 128.805 44.2683 128.492 43.8597C128.18 43.4553 127.725 43.251 127.133 43.251C126.712 43.251 126.333 43.3636 125.991 43.5888C125.653 43.8139 125.361 44.1141 125.124 44.4935C124.886 44.8729 124.698 45.3106 124.569 45.8068C124.44 46.3029 124.373 46.82 124.373 47.362C124.373 48.1583 124.528 48.7628 124.84 49.1714C125.153 49.5841 125.607 49.7842 126.204 49.7842Z" fill="white"/>
<path d="M134.317 42.1964L133.275 50.856H131.778L132.82 42.1964H134.317ZM134.888 39.478C134.888 39.6281 134.859 39.7657 134.801 39.8908C134.742 40.02 134.663 40.1326 134.563 40.2327C134.463 40.3328 134.35 40.412 134.225 40.4662C134.1 40.5246 133.971 40.5496 133.833 40.5496C133.704 40.5496 133.575 40.5204 133.45 40.4662C133.325 40.4078 133.216 40.3328 133.12 40.2327C133.024 40.1326 132.949 40.02 132.895 39.8908C132.837 39.7615 132.808 39.624 132.808 39.478C132.808 39.3321 132.837 39.1904 132.895 39.0611C132.954 38.9319 133.029 38.8152 133.125 38.7151C133.22 38.6151 133.333 38.5358 133.458 38.4775C133.583 38.4191 133.712 38.3857 133.842 38.3857C133.979 38.3857 134.108 38.4149 134.234 38.4691C134.359 38.5275 134.471 38.6025 134.571 38.7026C134.671 38.8027 134.751 38.9193 134.805 39.0528C134.859 39.1903 134.888 39.3321 134.888 39.478Z" fill="white"/>
<path d="M135.734 50.8559L136.768 42.188H137.527C137.869 42.188 138.04 42.359 138.04 42.7009L137.911 44.3769C138.374 43.6139 138.891 43.0386 139.47 42.6509C140.05 42.2631 140.65 42.0713 141.267 42.0713C141.909 42.0713 142.409 42.2881 142.768 42.7217C143.122 43.1553 143.302 43.7891 143.302 44.6188C143.302 44.7313 143.297 44.8481 143.293 44.969C143.289 45.0899 143.277 45.215 143.26 45.3442L142.609 50.8559H141.088L141.738 45.3442C141.751 45.2316 141.759 45.119 141.767 45.0148C141.776 44.9106 141.78 44.8064 141.78 44.7105C141.78 44.2435 141.692 43.8975 141.517 43.6723C141.342 43.4472 141.071 43.3346 140.7 43.3346C140.425 43.3346 140.15 43.4096 139.866 43.5556C139.583 43.7057 139.312 43.9141 139.049 44.1851C138.786 44.4561 138.544 44.7856 138.319 45.1691C138.094 45.5527 137.902 45.9821 137.744 46.4574L137.248 50.8601H135.734V50.8559Z" fill="white"/>
</svg>
