<svg width="28" height="28" viewBox="0 0 28 28" fill="none" xmlns="http://www.w3.org/2000/svg">
<path d="M18.6745 18.5C21.654 13.8246 21.2795 14.4079 21.3653 14.286C22.4501 12.7559 23.0234 10.9551 23.0234 9.07812C23.0234 4.10047 18.9842 0 14 0C9.03208 0 4.97656 4.09237 4.97656 9.07812C4.97656 10.9539 5.56194 12.8019 6.68227 14.3525L9.32542 18.5C6.49945 18.9343 1.69531 20.2285 1.69531 23.0781C1.69531 24.1169 2.37333 25.5973 5.60339 26.7509C7.85881 27.5564 10.8408 28 14 28C19.9076 28 26.3047 26.3336 26.3047 23.0781C26.3047 20.228 21.5062 18.9352 18.6745 18.5ZM8.05268 13.4501C8.04366 13.436 8.03425 13.4222 8.02441 13.4087C7.09215 12.1261 6.61719 10.6061 6.61719 9.07812C6.61719 4.97558 9.92064 1.64062 14 1.64062C18.0709 1.64062 21.3828 4.97705 21.3828 9.07812C21.3828 10.6086 20.9168 12.077 20.035 13.3258C19.956 13.43 20.3682 12.7895 14 22.7822L8.05268 13.4501ZM14 26.3594C7.5472 26.3594 3.33594 24.4626 3.33594 23.0781C3.33594 22.1476 5.49981 20.6175 10.2948 20.021L13.3082 24.7495C13.4588 24.9858 13.7197 25.1289 13.9999 25.1289C14.2802 25.1289 14.5411 24.9858 14.6917 24.7495L17.705 20.021C22.5001 20.6175 24.6641 22.1476 24.6641 23.0781C24.6641 24.4509 20.4907 26.3594 14 26.3594Z" fill="#22DDCD"/>
<path d="M14 4.97656C11.7384 4.97656 9.89844 6.81652 9.89844 9.07812C9.89844 11.3397 11.7384 13.1797 14 13.1797C16.2616 13.1797 18.1016 11.3397 18.1016 9.07812C18.1016 6.81652 16.2616 4.97656 14 4.97656ZM14 11.5391C12.643 11.5391 11.5391 10.4351 11.5391 9.07812C11.5391 7.72116 12.643 6.61719 14 6.61719C15.357 6.61719 16.4609 7.72116 16.4609 9.07812C16.4609 10.4351 15.357 11.5391 14 11.5391Z" fill="#22DDCD"/>
</svg>
