<svg width="14" height="26" viewBox="0 0 14 26" fill="none" xmlns="http://www.w3.org/2000/svg">
<path d="M11.2699 0H2.72989C1.22278 0.00173118 0.00149532 1.23888 0 2.76557V23.2346C0.00149532 24.7613 1.22278 25.9985 2.72989 26H11.2699C12.777 25.9985 13.9983 24.7613 14 23.2346V2.76557C13.9983 1.23888 12.777 0.00173118 11.2699 0ZM7 23.6365C6.3555 23.6365 5.83319 23.1074 5.83319 22.4545C5.83319 21.8019 6.3555 21.2728 7 21.2728C7.64429 21.2728 8.1666 21.8019 8.1666 22.4545C8.1666 23.1074 7.64429 23.6365 7 23.6365ZM8.75 3.54546H5.25C4.92786 3.54546 4.6666 3.28081 4.6666 2.95448C4.6666 2.62815 4.92786 2.36371 5.25 2.36371H8.75C9.07214 2.36371 9.33319 2.62815 9.33319 2.95448C9.33319 3.28081 9.07214 3.54546 8.75 3.54546Z" fill="#1EC1B3"/>
</svg>
