<svg width="21" height="22" viewBox="0 0 21 22" fill="none" xmlns="http://www.w3.org/2000/svg">
<path d="M19.7464 14.304C18.6662 13.1714 17.1672 12.6916 15.2421 13.2321L8.37763 6.03363L8.46836 5.67424C8.86372 4.12023 8.43653 2.44981 7.35384 1.31561C6.25147 0.159877 4.68429 -0.264182 3.20215 0.162326C2.99079 0.223127 2.82627 0.397108 2.77028 0.619128C2.71429 0.841147 2.77569 1.07713 2.93061 1.23951L4.58348 2.97103C5.0667 3.47849 5.06198 4.2912 4.58466 4.79256C4.11112 5.28997 3.31515 5.28919 2.84349 4.79381L1.19031 3.06182C1.0353 2.89935 0.809381 2.83563 0.597447 2.89463C0.385471 2.95358 0.220009 3.12636 0.162175 3.34799C-0.239012 4.88361 0.155653 6.53555 1.26332 7.69592C2.34313 8.82793 3.84021 9.30944 5.7664 8.76782L12.6315 15.9663C12.1192 17.9824 12.5611 19.5374 13.6559 20.6843C14.7596 21.8415 16.3275 22.2624 17.8064 21.8373C18.0178 21.7765 18.1824 21.6025 18.2384 21.3805C18.2945 21.1585 18.2331 20.9225 18.0781 20.76L16.4256 19.0289C15.9424 18.5214 15.9471 17.7086 16.4244 17.2074C16.9039 16.7077 17.6981 16.7156 18.1656 17.2067L19.8189 18.9382C19.9739 19.1006 20.1998 19.1643 20.4117 19.1053C20.6236 19.0463 20.7891 18.8737 20.8469 18.6521C21.2481 17.1167 20.8535 15.4643 19.7464 14.304Z" fill="#1EC1B3"/>
<path d="M6.58498 11.4548L0.719878 17.5997C-0.239959 18.6053 -0.239959 20.2404 0.719878 21.2459C1.67972 22.2514 3.24058 22.2514 4.20037 21.2459L10.0653 15.1011L6.58498 11.4548ZM3.62236 19.2456C3.382 19.4974 2.99275 19.4974 2.75239 19.2456C2.51207 18.9939 2.51207 18.586 2.75239 18.3343L6.48412 14.4242C6.72443 14.1725 7.11381 14.1725 7.35409 14.4242C7.5944 14.676 7.5944 15.0838 7.35409 15.3356L3.62236 19.2456Z" fill="#1EC1B3"/>
<path d="M20.8197 1.29994L19.7591 0.188812C19.5594 -0.0203178 19.2496 -0.0602788 19.0076 0.0917879L15.7448 2.14239C15.4015 2.35814 15.3432 2.8543 15.6262 3.15083L15.8859 3.42282L11.744 7.74407L13.4846 9.56745L17.6265 5.2462L17.9923 5.62953C18.2754 5.92597 18.749 5.86495 18.9549 5.5053L20.9124 2.08726C21.0575 1.83362 21.0194 1.50907 20.8197 1.29994Z" fill="#1EC1B3"/>
</svg>
