<svg width="210" height="90" viewBox="0 0 210 90" fill="none" xmlns="http://www.w3.org/2000/svg">
<rect width="210" height="90" fill="#0F322F"/>
<path d="M54.3038 42.1172V44.281C54.2162 44.2893 53.7201 44.3311 52.732 44.3311C51.9106 44.3311 51.3144 44.2977 51.1059 44.281V42.1172C47.9248 42.2589 45.5483 42.8135 45.5483 43.4764C45.5483 44.1393 47.9248 44.6938 51.1059 44.8314C51.3102 44.8397 51.8939 44.8648 52.7194 44.8648C53.7534 44.8648 54.2204 44.8355 54.308 44.8314H54.3038C57.4808 44.6896 59.8489 44.1351 59.8489 43.4764C59.8489 42.8176 57.4766 42.2589 54.3038 42.1172Z" fill="white"/>
<path d="M65.3814 43.8353L60.7494 34.1084C60.7202 34.0417 60.6535 34 60.5784 34H44.8228C44.7478 34 44.6811 34.0417 44.6519 34.1084L40.0198 43.8353C39.9823 43.9104 39.999 43.9978 40.0615 44.0562L52.5693 56.0428C52.6444 56.1137 52.7611 56.1137 52.832 56.0428L65.3398 44.0562C65.4023 43.9978 65.419 43.9062 65.3814 43.8353ZM54.3079 45.3571V51.565H51.1059V45.3612C47.5037 45.1945 44.7978 44.4816 44.7978 43.6269C44.7978 42.7722 47.5037 42.0591 51.1059 41.8924V39.9579H46.6781V37.006H58.7398V39.9579H54.3079V41.8924C57.9018 42.0591 60.6035 42.7722 60.6035 43.6269C60.5993 44.4816 57.8976 45.1945 54.3079 45.3571Z" fill="white"/>
<path d="M76.1006 47.0172C76.4425 47.0172 76.7468 46.9589 77.0136 46.8463C77.2805 46.7337 77.5098 46.5711 77.6932 46.3668C77.8767 46.1625 78.0184 45.9123 78.1143 45.6205C78.2102 45.3286 78.2602 44.9993 78.2602 44.6366V38.958H80.0238V44.6366C80.0238 45.1994 79.9321 45.7206 79.7528 46.2001C79.5735 46.6795 79.3109 47.0923 78.9732 47.4383C78.6354 47.7844 78.2227 48.0553 77.7391 48.2513C77.2554 48.4473 76.7093 48.5431 76.1006 48.5431C75.4877 48.5431 74.9415 48.4473 74.4537 48.2513C73.9701 48.0553 73.5573 47.7844 73.2196 47.4383C72.8819 47.0923 72.6192 46.6795 72.44 46.2001C72.2565 45.7206 72.1689 45.1994 72.1689 44.6366V38.958H73.9325V44.6282C73.9325 44.991 73.9826 45.3204 74.0784 45.6122C74.1785 45.9041 74.3203 46.1542 74.5037 46.3626C74.6913 46.5711 74.9165 46.7296 75.1875 46.8463C75.4543 46.9631 75.7587 47.0172 76.1006 47.0172Z" fill="white"/>
<path d="M87.0657 40.688C87.0115 40.7797 86.9573 40.8464 86.8989 40.8881C86.8406 40.9298 86.7655 40.9506 86.678 40.9506C86.5863 40.9506 86.4862 40.9172 86.3778 40.8505C86.2694 40.7838 86.1443 40.7087 85.9942 40.6254C85.8441 40.542 85.6732 40.467 85.4731 40.4003C85.2729 40.3336 85.0394 40.3002 84.7684 40.3002C84.5225 40.3002 84.3099 40.3294 84.1264 40.3878C83.943 40.4462 83.7887 40.5295 83.6636 40.6337C83.5385 40.7379 83.4468 40.8631 83.3843 41.009C83.3217 41.1549 83.2926 41.3175 83.2926 41.4926C83.2926 41.7136 83.3551 41.9012 83.4802 42.0513C83.6052 42.2014 83.7678 42.3264 83.9763 42.4307C84.1806 42.5349 84.4141 42.6308 84.6767 42.7142C84.9394 42.7975 85.2062 42.8852 85.4814 42.9811C85.7566 43.0769 86.0276 43.1854 86.2861 43.3104C86.5487 43.4355 86.7822 43.5939 86.9865 43.7815C87.1908 43.9733 87.3576 44.2026 87.4826 44.4778C87.6077 44.7529 87.6703 45.0865 87.6703 45.4826C87.6703 45.912 87.5952 46.3122 87.4493 46.6875C87.3034 47.0627 87.0907 47.3879 86.8072 47.6631C86.5237 47.9425 86.1818 48.1593 85.7732 48.3177C85.3688 48.4762 84.9019 48.5553 84.3766 48.5553C84.0764 48.5553 83.7762 48.5261 83.4843 48.4678C83.1925 48.4094 82.909 48.3261 82.6421 48.2135C82.3753 48.1051 82.121 47.9716 81.8833 47.8215C81.6457 47.6672 81.4372 47.4963 81.2538 47.3087L81.7708 46.4623C81.8125 46.3998 81.8708 46.3498 81.9417 46.3081C82.0125 46.2664 82.0876 46.2455 82.1668 46.2455C82.2752 46.2455 82.392 46.2914 82.5212 46.379C82.6463 46.4707 82.8006 46.5666 82.9715 46.6791C83.1466 46.7875 83.3509 46.8876 83.5844 46.9793C83.8179 47.071 84.0972 47.1128 84.4266 47.1128C84.9311 47.1128 85.3188 46.9919 85.5939 46.7543C85.8691 46.5166 86.0067 46.1746 86.0067 45.7285C86.0067 45.4784 85.9442 45.2783 85.8191 45.1198C85.694 44.9614 85.5273 44.8322 85.323 44.7238C85.1187 44.6154 84.8852 44.5279 84.6225 44.4528C84.3599 44.3778 84.093 44.2985 83.822 44.211C83.551 44.1234 83.2842 44.0192 83.0215 43.8983C82.7589 43.7774 82.5254 43.6148 82.3211 43.4188C82.1168 43.2229 81.95 42.9769 81.825 42.6809C81.6999 42.3849 81.6373 42.0221 81.6373 41.5885C81.6373 41.2424 81.7082 40.9048 81.8458 40.5796C81.9834 40.2502 82.1835 39.9625 82.4462 39.7081C82.7088 39.4538 83.0299 39.2495 83.4176 39.0994C83.8012 38.9452 84.2431 38.8701 84.7435 38.8701C85.3021 38.8701 85.8191 38.9577 86.2902 39.1328C86.7614 39.3079 87.1658 39.5539 87.4952 39.8666L87.0657 40.688Z" fill="white"/>
<path d="M97.6264 43.7024C97.6264 44.3987 97.5097 45.0366 97.2804 45.6161C97.0469 46.1957 96.7217 46.6959 96.3048 47.117C95.8837 47.5381 95.3792 47.8633 94.7914 48.0927C94.1993 48.3261 93.5448 48.4386 92.8235 48.4386H89.2129V38.9619H92.8235C93.5448 38.9619 94.1993 39.0787 94.7914 39.3122C95.3834 39.5456 95.8879 39.8709 96.3048 40.2878C96.7259 40.7047 97.0511 41.205 97.2804 41.7845C97.5097 42.3682 97.6264 43.0061 97.6264 43.7024ZM95.817 43.7024C95.817 43.1813 95.7461 42.7143 95.6085 42.3015C95.4709 41.8887 95.2708 41.5385 95.0123 41.2508C94.7539 40.9632 94.437 40.7464 94.0701 40.5922C93.699 40.4379 93.2863 40.3628 92.8235 40.3628H90.9807V47.0378H92.8235C93.2863 47.0378 93.7032 46.9628 94.0701 46.8085C94.4412 46.6542 94.7539 46.4374 95.0123 46.1497C95.2708 45.862 95.4709 45.516 95.6085 45.0991C95.7503 44.6863 95.817 44.2236 95.817 43.7024Z" fill="white"/>
<path d="M105.469 40.4125H102.609V48.4425H100.845V40.4125H97.985V38.9658H105.465V40.4125H105.469Z" fill="white"/>
<path d="M105.606 43.8066H109V45.1575H105.606V43.8066Z" fill="white"/>
<path d="M116.622 40.4125H113.762V48.4425H111.998V40.4125H109.138V38.9658H116.617V40.4125H116.622Z" fill="white"/>
<path d="M125.269 48.4386H123.676C123.376 48.4386 123.155 48.322 123.021 48.0843L121.028 45.0491C120.953 44.9365 120.87 44.8531 120.782 44.8072C120.695 44.7572 120.562 44.7364 120.386 44.7364H119.632V48.4386H117.868V38.9619H120.757C121.4 38.9619 121.95 39.0286 122.413 39.162C122.875 39.2954 123.251 39.4831 123.547 39.7207C123.843 39.9626 124.06 40.2503 124.197 40.5838C124.339 40.9174 124.406 41.2884 124.406 41.6886C124.406 42.0097 124.36 42.3099 124.264 42.5934C124.172 42.8769 124.034 43.1354 123.859 43.3688C123.684 43.6023 123.463 43.8024 123.205 43.9775C122.946 44.1527 122.65 44.2902 122.317 44.3903C122.429 44.457 122.534 44.5321 122.634 44.6238C122.73 44.7155 122.817 44.8198 122.896 44.9407L125.269 48.4386ZM120.732 43.4731C121.066 43.4731 121.354 43.4314 121.6 43.348C121.846 43.2646 122.05 43.1521 122.208 43.002C122.367 42.8561 122.488 42.681 122.567 42.4808C122.646 42.2807 122.684 42.0597 122.684 41.8179C122.684 41.3384 122.525 40.9674 122.208 40.7089C121.892 40.4504 121.408 40.3211 120.757 40.3211H119.632V43.4689H120.732V43.4731Z" fill="white"/>
<path d="M132.677 46.2037C132.773 46.2037 132.857 46.2412 132.932 46.3163L133.628 47.0709C133.244 47.5462 132.769 47.9131 132.21 48.1674C131.648 48.4217 130.976 48.5468 130.188 48.5468C129.484 48.5468 128.854 48.4259 128.291 48.1883C127.729 47.9465 127.249 47.6129 126.853 47.1834C126.457 46.754 126.148 46.2454 125.94 45.6492C125.727 45.053 125.623 44.4068 125.623 43.7022C125.623 42.9892 125.736 42.3388 125.965 41.7468C126.19 41.1548 126.511 40.646 126.924 40.2166C127.337 39.7872 127.829 39.4537 128.404 39.216C128.975 38.9784 129.609 38.8574 130.305 38.8574C130.997 38.8574 131.61 38.97 132.144 39.1993C132.677 39.4286 133.136 39.7247 133.511 40.0916L132.919 40.9129C132.886 40.9671 132.84 41.0129 132.786 41.0505C132.732 41.088 132.657 41.1089 132.561 41.1089C132.494 41.1089 132.427 41.0922 132.356 41.0546C132.286 41.0171 132.21 40.9713 132.127 40.9171C132.044 40.8629 131.948 40.8003 131.839 40.7378C131.731 40.6711 131.602 40.6127 131.46 40.5585C131.314 40.5043 131.147 40.4584 130.96 40.4209C130.768 40.3834 130.551 40.3667 130.301 40.3667C129.876 40.3667 129.488 40.4418 129.138 40.5919C128.788 40.742 128.483 40.9629 128.229 41.2464C127.975 41.5341 127.779 41.8801 127.637 42.2971C127.495 42.7098 127.428 43.181 127.428 43.7105C127.428 44.2442 127.503 44.7194 127.653 45.1322C127.804 45.5491 128.008 45.8952 128.266 46.1828C128.525 46.4663 128.829 46.6832 129.175 46.8333C129.525 46.9834 129.901 47.0584 130.301 47.0584C130.543 47.0584 130.76 47.0459 130.951 47.0209C131.147 46.9958 131.327 46.9541 131.489 46.8958C131.652 46.8374 131.81 46.7665 131.956 46.6748C132.102 46.5872 132.248 46.4747 132.394 46.3455C132.436 46.308 132.482 46.2745 132.532 46.2495C132.573 46.2162 132.623 46.2037 132.677 46.2037Z" fill="white"/>
</svg>
