<svg width="33" height="33" viewBox="0 0 33 33" fill="none" xmlns="http://www.w3.org/2000/svg">
<circle cx="16.0127" cy="16.0127" r="16.0127" fill="#22DDCD"/>
<g clip-path="url(#clip0_1370_2217)">
<path d="M24.7469 10.4146C24.0973 10.6996 23.4051 10.8884 22.6834 10.9802C23.4258 10.5369 23.9924 9.84034 24.2588 9.00077C23.5667 9.41346 22.8024 9.70496 21.9879 9.86763C21.3307 9.16781 20.394 8.73438 19.3721 8.73438C17.3894 8.73438 15.7932 10.3436 15.7932 12.3165C15.7932 12.6003 15.8173 12.8733 15.8762 13.1331C12.8989 12.9879 10.2645 11.561 8.49474 9.38725C8.18577 9.92331 8.00453 10.5369 8.00453 11.1974C8.00453 12.4377 8.64322 13.5371 9.59524 14.1736C9.01988 14.1627 8.45543 13.9956 7.97724 13.7325C7.97724 13.7434 7.97724 13.7576 7.97724 13.7718C7.97724 15.5121 9.21858 16.9576 10.8464 17.2906C10.5549 17.3703 10.2372 17.4085 9.90749 17.4085C9.67822 17.4085 9.44676 17.3954 9.2295 17.3474C9.6935 18.7656 11.0102 19.8082 12.5758 19.8421C11.3574 20.7952 9.81032 21.3695 8.13554 21.3695C7.84186 21.3695 7.56018 21.3564 7.2785 21.3203C8.86485 22.3433 10.7449 22.9274 12.7723 22.9274C19.3622 22.9274 22.9651 17.4686 22.9651 12.7368C22.9651 12.5785 22.9596 12.4257 22.952 12.2739C23.6627 11.7695 24.2599 11.1395 24.7469 10.4146Z" fill="#333333"/>
</g>
<defs>
<clipPath id="clip0_1370_2217">
<rect width="17.4684" height="17.4684" fill="white" transform="translate(7.2785 7.2793)"/>
</clipPath>
</defs>
</svg>
