<svg width="32" height="32" viewBox="0 0 32 32" fill="none" xmlns="http://www.w3.org/2000/svg">
<g clip-path="url(#clip0_1370_2319)">
<path d="M28.6504 23.793C28.0964 23.381 27.3134 23.496 26.9014 24.0499C26.6747 24.3545 26.4322 24.6533 26.1805 24.938C25.7234 25.4552 25.7719 26.2452 26.2891 26.7024C26.527 26.9127 26.8223 27.0159 27.1165 27.0159C27.4623 27.0159 27.8065 26.8732 28.0535 26.5938C28.3516 26.2567 28.6388 25.9028 28.9072 25.542C29.3192 24.9882 29.2043 24.205 28.6504 23.793Z" fill="#22DDCD"/>
<path d="M30.7409 17.9302C30.0668 17.7834 29.4005 18.2112 29.2537 18.8857C29.1728 19.2568 29.0752 19.6285 28.9633 19.9908C28.7595 20.6504 29.129 21.3503 29.7885 21.5541C29.9115 21.592 30.0357 21.6101 30.158 21.6101C30.6917 21.6101 31.186 21.2655 31.3518 20.7287C31.4847 20.2988 31.6006 19.8577 31.6965 19.4175C31.8433 18.743 31.4155 18.0771 30.7409 17.9302Z" fill="#22DDCD"/>
<path d="M22.6337 27.7955C22.3018 27.9808 21.9582 28.1539 21.6124 28.3101C20.9832 28.5942 20.7035 29.3346 20.9877 29.9638C21.1964 30.426 21.6514 30.6996 22.1276 30.6996C22.2996 30.6996 22.4744 30.6639 22.6414 30.5885C23.0515 30.4033 23.4589 30.1979 23.8524 29.9783C24.4552 29.6418 24.671 28.8803 24.3344 28.2775C23.998 27.6748 23.2365 27.459 22.6337 27.7955Z" fill="#22DDCD"/>
<path d="M14.75 6V15.4823L10.1663 20.0659C9.67814 20.5541 9.67814 21.3455 10.1663 21.8336C10.4104 22.0778 10.7302 22.1998 11.0502 22.1998C11.3701 22.1998 11.69 22.0777 11.9341 21.8336L16.8839 16.8839C17.1183 16.6495 17.25 16.3315 17.25 16V6C17.25 5.30963 16.6903 4.75 16 4.75C15.3096 4.75 14.75 5.30963 14.75 6Z" fill="#22DDCD"/>
<path d="M30.75 2.6875C30.0596 2.6875 29.5 3.24713 29.5 3.9375V7.4085C26.5905 2.8455 21.5094 0 16 0C11.7262 0 7.70831 1.66431 4.68625 4.68625C1.66431 7.70831 0 11.7262 0 16C0 20.2738 1.66431 24.2917 4.68625 27.3137C7.70831 30.3357 11.7262 32 16 32C16.0106 32 16.0208 31.9987 16.0312 31.9984C16.0417 31.9987 16.0519 32 16.0625 32C16.513 32 16.9679 31.981 17.4148 31.9436C18.1027 31.886 18.6137 31.2816 18.5562 30.5937C18.4985 29.9058 17.8949 29.3945 17.2062 29.4524C16.8284 29.4839 16.4437 29.5 16.0625 29.5C16.0519 29.5 16.0417 29.5013 16.0312 29.5016C16.0208 29.5013 16.0106 29.5 16 29.5C8.55606 29.5 2.5 23.4439 2.5 16C2.5 8.55606 8.55606 2.5 16 2.5C20.7974 2.5 25.2098 5.05706 27.621 9.125H24.1839C23.4936 9.125 22.9339 9.68462 22.9339 10.375C22.9339 11.0654 23.4936 11.625 24.1839 11.625H28C28.7612 11.625 29.4734 11.4111 30.0798 11.0404C30.1188 11.0182 30.1563 10.9942 30.1921 10.9684C31.2799 10.2527 32 9.02169 32 7.625V3.9375C32 3.24713 31.4404 2.6875 30.75 2.6875Z" fill="#22DDCD"/>
</g>
<defs>
<clipPath id="clip0_1370_2319">
<rect width="32" height="32" fill="white"/>
</clipPath>
</defs>
</svg>
